<?xml version="1.0" encoding="UTF-8" standalone="no"?><svg xmlns="http://www.w3.org/2000/svg" xmlns:xlink="http://www.w3.org/1999/xlink" contentStyleType="text/css" height="768px" preserveAspectRatio="none" style="width:2735px;height:768px;background:#FFFFFF;" version="1.1" viewBox="0 0 2735 768" width="2735px" zoomAndPan="magnify"><defs/><g><!--MD5=[396100ae4c9e089206ae2f88141b08a5]
class Redux_SquadViewNew--><g id="elem_Redux_SquadViewNew"><rect codeLine="7" fill="#F1F1F1" height="300.7188" id="Redux_SquadViewNew" rx="2.5" ry="2.5" style="stroke:#181818;stroke-width:0.5;" width="349" x="440.5" y="132"/><ellipse cx="531.75" cy="152.1328" fill="#87CEEB" rx="11" ry="11" style="stroke:#A80036;stroke-width:1.0;"/><path d="M535.5313,148.1016 C535.5313,147.6641 535.5156,147.5234 535.4219,147.3672 C535.2813,147.1328 535,146.9766 534.7031,146.9766 C534.3594,146.9766 534.2188,147.1172 534.0469,147.5391 C533.4531,147.1641 532.7031,146.9766 531.8281,146.9766 C529.7188,146.9766 528.1406,148.2734 528.1406,149.9922 C528.1406,150.9609 528.6719,151.8672 529.5313,152.3516 C530.0781,152.6641 530.625,152.8359 531.7344,153.0234 C532.8906,153.2266 533.1563,153.2891 533.5156,153.4766 C533.8906,153.6797 534.125,154.0234 534.125,154.3828 C534.125,155.1172 533.1406,155.6641 531.8906,155.6641 C530.7656,155.6641 529.6875,155.1797 529.5156,154.5703 C529.3906,154.1016 529.3906,154.1016 529.2656,153.9922 C529.1094,153.8359 528.8906,153.7422 528.6563,153.7422 C528.375,153.7422 528.125,153.8672 527.9531,154.0859 C527.8438,154.2578 527.7969,154.4453 527.7969,154.8672 L527.7969,155.9922 C527.7969,156.7578 528.0781,157.1172 528.6719,157.1172 C528.9375,157.1172 529.0625,157.0547 529.3438,156.7109 C530.1875,157.1484 531.0781,157.3672 532,157.3672 C534.3281,157.3672 535.8906,156.1797 535.8906,154.4141 C535.8906,153.5234 535.5781,152.8359 534.8906,152.2891 C534.3594,151.8672 533.7188,151.6172 532.2344,151.3516 C530.9688,151.1172 530.875,151.0859 530.5469,150.9141 C530.1719,150.7266 529.9063,150.3359 529.9063,149.9766 C529.9063,149.2422 530.7656,148.6797 531.8281,148.6797 C532.8906,148.6797 533.7031,149.1484 533.8594,149.8203 C533.9688,150.3672 533.9688,150.3672 534.0938,150.5078 C534.2344,150.6328 534.4688,150.7422 534.7031,150.7422 C534.9688,150.7422 535.2188,150.6016 535.3906,150.3828 C535.5,150.2109 535.5313,150.0703 535.5313,149.6016 L535.5313,148.1016 Z " fill="#000000"/><text fill="#000000" font-family="sans-serif" font-size="12" font-style="italic" lengthAdjust="spacing" textLength="50" x="606.25" y="148.1387">«struct»</text><text fill="#000000" font-family="sans-serif" font-size="14" lengthAdjust="spacing" textLength="158" x="552.25" y="163.9639">Redux_SquadViewNew</text><line style="stroke:#181818;stroke-width:0.5;" x1="441.5" x2="788.5" y1="172.2656" y2="172.2656"/><polygon fill="none" points="451.5,179.2656,447.5,185.2656,455.5,185.2656" style="stroke:#1963A0;stroke-width:1.0;"/><text fill="#000000" font-family="sans-serif" font-size="14" lengthAdjust="spacing" textLength="187" x="460.5" y="189.2607">viewFactory : ViewFactory</text><polygon fill="none" points="451.5,195.5625,447.5,201.5625,455.5,201.5625" style="stroke:#1963A0;stroke-width:1.0;"/><text fill="#000000" font-family="sans-serif" font-size="14" lengthAdjust="spacing" textLength="158" x="460.5" y="205.5576">activationOrder : Bool</text><rect fill="none" height="6" style="stroke:#C82930;stroke-width:1.0;" width="6" x="448.5" y="212.8594"/><text fill="#000000" font-family="sans-serif" font-size="14" lengthAdjust="spacing" textLength="250" x="460.5" y="221.8545">displayResetAllConfirmation : Bool</text><polygon fill="none" points="451.5,228.1563,447.5,234.1563,455.5,234.1563" style="stroke:#1963A0;stroke-width:1.0;"/><text fill="#000000" font-family="sans-serif" font-size="14" lengthAdjust="spacing" textLength="132" x="460.5" y="238.1514">isFirstPlayer : Bool</text><polygon fill="none" points="451.5,244.4531,447.5,250.4531,455.5,250.4531" style="stroke:#1963A0;stroke-width:1.0;"/><text fill="#000000" font-family="sans-serif" font-size="14" lengthAdjust="spacing" textLength="145" x="460.5" y="254.4482">victoryPoints : Int32</text><rect fill="none" height="6" style="stroke:#C82930;stroke-width:1.0;" width="6" x="448.5" y="261.75"/><text fill="#000000" font-family="sans-serif" font-size="14" lengthAdjust="spacing" textLength="175" x="460.5" y="270.7451">firstPlayerRefresh : Bool</text><polygon fill="none" points="451.5,277.0469,447.5,283.0469,455.5,283.0469" style="stroke:#1963A0;stroke-width:1.0;"/><text fill="#000000" font-family="sans-serif" font-size="14" lengthAdjust="spacing" textLength="188" x="460.5" y="287.042">shipPilotsNew : [ShipPilot]</text><polygon fill="none" points="451.5,293.3438,447.5,299.3438,455.5,299.3438" style="stroke:#1963A0;stroke-width:1.0;"/><text fill="#000000" font-family="sans-serif" font-size="14" lengthAdjust="spacing" textLength="111" x="460.5" y="303.3389">theme : Theme</text><polygon fill="none" points="451.5,309.6406,447.5,315.6406,455.5,315.6406" style="stroke:#1963A0;stroke-width:1.0;"/><text fill="#000000" font-family="sans-serif" font-size="14" lengthAdjust="spacing" textLength="97" x="460.5" y="319.6357">squad : Squad</text><polygon fill="none" points="451.5,325.9375,447.5,331.9375,455.5,331.9375" style="stroke:#1963A0;stroke-width:1.0;"/><text fill="#000000" font-family="sans-serif" font-size="14" lengthAdjust="spacing" textLength="165" x="460.5" y="335.9326">squadData : SquadData</text><polygon fill="none" points="451.5,342.2344,447.5,348.2344,455.5,348.2344" style="stroke:#1963A0;stroke-width:1.0;"/><text fill="#000000" font-family="sans-serif" font-size="14" lengthAdjust="spacing" textLength="323" x="460.5" y="352.2295">viewModel : Redux_SquadViewNewViewModel</text><polygon fill="none" points="451.5,358.5313,447.5,364.5313,455.5,364.5313" style="stroke:#1963A0;stroke-width:1.0;"/><text fill="#000000" font-family="sans-serif" font-size="14" lengthAdjust="spacing" textLength="158" x="460.5" y="368.5264">shipPilots : [ShipPilot]</text><polygon fill="none" points="451.5,374.8281,447.5,380.8281,455.5,380.8281" style="stroke:#1963A0;stroke-width:1.0;"/><text fill="#000000" font-family="sans-serif" font-size="14" lengthAdjust="spacing" textLength="109" x="460.5" y="384.8232">chunkedShips :</text><a href="ShipPilot" target="_top" title="ShipPilot" xlink:actuate="onRequest" xlink:href="ShipPilot" xlink:show="new" xlink:title="ShipPilot" xlink:type="simple"><text fill="#0000FF" font-family="sans-serif" font-size="14" lengthAdjust="spacing" text-decoration="underline" textLength="65" x="573.5" y="384.8232">ShipPilot</text></a><polygon fill="none" points="451.5,391.125,447.5,397.125,455.5,397.125" style="stroke:#1963A0;stroke-width:1.0;"/><text fill="#000000" font-family="sans-serif" font-size="14" lengthAdjust="spacing" textLength="207" x="460.5" y="401.1201">sortedShipPilots : [ShipPilot]</text><line style="stroke:#181818;stroke-width:0.5;" x1="441.5" x2="788.5" y1="408.4219" y2="408.4219"/><polygon fill="#4177AF" points="451.5,415.4219,447.5,421.4219,455.5,421.4219" style="stroke:#1963A0;stroke-width:1.0;"/><text fill="#000000" font-family="sans-serif" font-size="14" lengthAdjust="spacing" textLength="203" x="460.5" y="425.417">init(store:squad:squadData:)</text></g><!--MD5=[06807e9d91206fab19a6fac1412e6ffd]
class Redux_SquadViewNew0--><g id="elem_Redux_SquadViewNew0"><rect codeLine="24" fill="#F1F1F1" height="251.8281" id="Redux_SquadViewNew0" rx="2.5" ry="2.5" style="stroke:#181818;stroke-width:0.5;" width="278" x="301" y="510"/><ellipse cx="356.75" cy="530.1328" fill="#DA70D6" rx="11" ry="11" style="stroke:#A80036;stroke-width:1.0;"/><path d="M357.9375,530.0859 L360.6094,526.9141 C361.2031,526.8984 361.5781,526.6016 361.5781,526.0703 C361.5781,525.8047 361.4531,525.5391 361.2188,525.3672 C361.0469,525.2578 360.9063,525.2266 360.4531,525.2266 L358.9219,525.2266 C358.5469,525.2266 358.2813,525.2734 358.1406,525.3984 C357.9219,525.5391 357.7813,525.8203 357.7813,526.0703 C357.7813,526.4453 357.9531,526.6641 358.4375,526.8984 L356.8438,528.7578 L355.2344,526.8984 C355.7344,526.6641 355.875,526.4453 355.875,526.0703 C355.875,525.8047 355.75,525.5391 355.5313,525.3672 C355.3594,525.2578 355.2188,525.2266 354.7344,525.2266 L353.1875,525.2266 C353.0781,525.2266 353.0625,525.2266 352.8594,525.2578 C352.3594,525.3047 352.0781,525.6172 352.0781,526.0703 C352.0781,526.5859 352.4375,526.8828 353.0625,526.9141 L355.75,530.0703 L352.9219,533.4297 C352.2969,533.4297 351.9219,533.7578 351.9219,534.2891 C351.9219,534.5547 352.0625,534.8047 352.2813,534.9766 C352.4375,535.0859 352.6406,535.1328 353.0469,535.1328 L354.9219,535.1328 C355.2813,535.1328 355.5,535.1016 355.6406,535.0078 C355.8906,534.8672 356.0469,534.5703 356.0469,534.2891 C356.0469,533.7734 355.7188,533.4609 355.1406,533.4297 L356.8594,531.3984 L358.5781,533.4297 C357.9844,533.4609 357.6563,533.7734 357.6563,534.2891 C357.6563,534.8516 358.0156,535.1328 358.7656,535.1328 L360.6563,535.1328 C361.0156,535.1328 361.2344,535.1016 361.375,535.0078 C361.625,534.8672 361.7813,534.5703 361.7813,534.2891 C361.7813,533.7578 361.4219,533.4453 360.7813,533.4297 L357.9375,530.0859 Z " fill="#000000"/><text fill="#000000" font-family="sans-serif" font-size="12" font-style="italic" lengthAdjust="spacing" textLength="72" x="420.25" y="526.1387">«extension»</text><text fill="#000000" font-family="sans-serif" font-size="14" lengthAdjust="spacing" textLength="158" x="377.25" y="541.9639">Redux_SquadViewNew</text><line style="stroke:#181818;stroke-width:0.5;" x1="302" x2="578" y1="550.2656" y2="550.2656"/><text fill="#000000" font-family="sans-serif" font-size="14" lengthAdjust="spacing" textLength="193" x="321" y="567.2607">emptySection : some View</text><rect fill="none" height="6" style="stroke:#C82930;stroke-width:1.0;" width="6" x="309" y="574.5625"/><text fill="#000000" font-family="sans-serif" font-size="14" lengthAdjust="spacing" textLength="145" x="321" y="583.5576">shipsView : AnyView</text><text fill="#000000" font-family="sans-serif" font-size="14" lengthAdjust="spacing" textLength="208" x="321" y="599.8545">shipsListSection : some View</text><text fill="#000000" font-family="sans-serif" font-size="14" lengthAdjust="spacing" textLength="157" x="321" y="616.1514">shipsGrid : some View</text><text fill="#000000" font-family="sans-serif" font-size="14" lengthAdjust="spacing" textLength="140" x="321" y="632.4482">header : some View</text><text fill="#000000" font-family="sans-serif" font-size="14" lengthAdjust="spacing" textLength="148" x="321" y="648.7451">content : some View</text><text fill="#000000" font-family="sans-serif" font-size="14" lengthAdjust="spacing" textLength="126" x="321" y="665.042">body : some View</text><line style="stroke:#181818;stroke-width:0.5;" x1="302" x2="578" y1="672.3438" y2="672.3438"/><rect fill="#F24D5C" height="6" style="stroke:#C82930;stroke-width:1.0;" width="6" x="309" y="680.3438"/><text fill="#000000" font-family="sans-serif" font-size="14" lengthAdjust="spacing" textLength="93" x="321" y="689.3389">hideAllDials()</text><rect fill="#F24D5C" height="6" style="stroke:#C82930;stroke-width:1.0;" width="6" x="309" y="696.6406"/><text fill="#000000" font-family="sans-serif" font-size="14" lengthAdjust="spacing" textLength="238" x="321" y="705.6357">disableSystemPhaseForAllPilots()</text><rect fill="#F24D5C" height="6" style="stroke:#C82930;stroke-width:1.0;" width="6" x="309" y="712.9375"/><text fill="#000000" font-family="sans-serif" font-size="14" lengthAdjust="spacing" textLength="252" x="321" y="721.9326">setSystemPhaseForAllPilots(value:)</text><rect fill="#F24D5C" height="6" style="stroke:#C82930;stroke-width:1.0;" width="6" x="309" y="729.2344"/><text fill="#000000" font-family="sans-serif" font-size="14" lengthAdjust="spacing" textLength="131" x="321" y="738.2295">updateAllPilots(_:)</text><rect fill="#F24D5C" height="6" style="stroke:#C82930;stroke-width:1.0;" width="6" x="309" y="745.5313"/><text fill="#000000" font-family="sans-serif" font-size="14" lengthAdjust="spacing" textLength="195" x="321" y="754.5264">buildShipButton(shipPilot:)</text></g><!--MD5=[f2f6a7e0f5dc735fc896e461dbba2c30]
class Redux_SquadViewNew1--><g id="elem_Redux_SquadViewNew1"><rect codeLine="38" fill="#F1F1F1" height="186.6406" id="Redux_SquadViewNew1" rx="2.5" ry="2.5" style="stroke:#181818;stroke-width:0.5;" width="352" x="614" y="542.5"/><ellipse cx="706.75" cy="562.6328" fill="#DA70D6" rx="11" ry="11" style="stroke:#A80036;stroke-width:1.0;"/><path d="M707.9375,562.5859 L710.6094,559.4141 C711.2031,559.3984 711.5781,559.1016 711.5781,558.5703 C711.5781,558.3047 711.4531,558.0391 711.2188,557.8672 C711.0469,557.7578 710.9063,557.7266 710.4531,557.7266 L708.9219,557.7266 C708.5469,557.7266 708.2813,557.7734 708.1406,557.8984 C707.9219,558.0391 707.7813,558.3203 707.7813,558.5703 C707.7813,558.9453 707.9531,559.1641 708.4375,559.3984 L706.8438,561.2578 L705.2344,559.3984 C705.7344,559.1641 705.875,558.9453 705.875,558.5703 C705.875,558.3047 705.75,558.0391 705.5313,557.8672 C705.3594,557.7578 705.2188,557.7266 704.7344,557.7266 L703.1875,557.7266 C703.0781,557.7266 703.0625,557.7266 702.8594,557.7578 C702.3594,557.8047 702.0781,558.1172 702.0781,558.5703 C702.0781,559.0859 702.4375,559.3828 703.0625,559.4141 L705.75,562.5703 L702.9219,565.9297 C702.2969,565.9297 701.9219,566.2578 701.9219,566.7891 C701.9219,567.0547 702.0625,567.3047 702.2813,567.4766 C702.4375,567.5859 702.6406,567.6328 703.0469,567.6328 L704.9219,567.6328 C705.2813,567.6328 705.5,567.6016 705.6406,567.5078 C705.8906,567.3672 706.0469,567.0703 706.0469,566.7891 C706.0469,566.2734 705.7188,565.9609 705.1406,565.9297 L706.8594,563.8984 L708.5781,565.9297 C707.9844,565.9609 707.6563,566.2734 707.6563,566.7891 C707.6563,567.3516 708.0156,567.6328 708.7656,567.6328 L710.6563,567.6328 C711.0156,567.6328 711.2344,567.6016 711.375,567.5078 C711.625,567.3672 711.7813,567.0703 711.7813,566.7891 C711.7813,566.2578 711.4219,565.9453 710.7813,565.9297 L707.9375,562.5859 Z " fill="#000000"/><text fill="#000000" font-family="sans-serif" font-size="12" font-style="italic" lengthAdjust="spacing" textLength="72" x="770.25" y="558.6387">«extension»</text><text fill="#000000" font-family="sans-serif" font-size="14" lengthAdjust="spacing" textLength="158" x="727.25" y="574.4639">Redux_SquadViewNew</text><line style="stroke:#181818;stroke-width:0.5;" x1="615" x2="965" y1="582.7656" y2="582.7656"/><line style="stroke:#181818;stroke-width:0.5;" x1="615" x2="965" y1="590.7656" y2="590.7656"/><text fill="#000000" font-family="sans-serif" font-size="14" lengthAdjust="spacing" textLength="181" x="634" y="607.7607">setVictoryPoints(points:)</text><text fill="#000000" font-family="sans-serif" font-size="14" lengthAdjust="spacing" textLength="121" x="634" y="624.0576">setFirstPlayer(_:)</text><text fill="#000000" font-family="sans-serif" font-size="14" lengthAdjust="spacing" textLength="184" x="634" y="640.3545">updateSquad(squadData:)</text><text fill="#000000" font-family="sans-serif" font-size="14" lengthAdjust="spacing" textLength="326" x="634" y="656.6514">updatePilotState(pilotStateData:pilotState:)</text><rect fill="#F24D5C" height="6" style="stroke:#C82930;stroke-width:1.0;" width="6" x="622" y="663.9531"/><text fill="#000000" font-family="sans-serif" font-size="14" lengthAdjust="spacing" textLength="119" x="634" y="672.9482">processEngage()</text><rect fill="#F24D5C" height="6" style="stroke:#C82930;stroke-width:1.0;" width="6" x="622" y="680.25"/><text fill="#000000" font-family="sans-serif" font-size="14" lengthAdjust="spacing" textLength="105" x="634" y="689.2451">resetAllShips()</text><rect fill="#F24D5C" height="6" style="stroke:#C82930;stroke-width:1.0;" width="6" x="622" y="696.5469"/><text fill="#000000" font-family="sans-serif" font-size="14" lengthAdjust="spacing" textLength="113" x="634" y="705.542">updateAllDials()</text><rect fill="#F24D5C" height="6" style="stroke:#C82930;stroke-width:1.0;" width="6" x="622" y="712.8438"/><text fill="#000000" font-family="sans-serif" font-size="14" lengthAdjust="spacing" textLength="220" x="634" y="721.8389">updateAllDials(newDialStatus:)</text></g><!--MD5=[9f754cd3316016afcc68eb697815ae49]
class Redux_SquadViewNewViewModel--><g id="elem_Redux_SquadViewNewViewModel"><rect codeLine="48" fill="#F1F1F1" height="113.1875" id="Redux_SquadViewNewViewModel" rx="2.5" ry="2.5" style="stroke:#181818;stroke-width:0.5;" width="415" x="1222.5" y="226"/><ellipse cx="1308.25" cy="242" fill="#8FBC8F" rx="11" ry="11" style="stroke:#A80036;stroke-width:1.0;"/><path d="M1310.5938,237.6719 C1309.6563,237.2344 1309.0625,237.0938 1308.1875,237.0938 C1305.5625,237.0938 1303.5625,239.1719 1303.5625,241.8906 L1303.5625,243.0156 C1303.5625,245.5938 1305.6719,247.4844 1308.5625,247.4844 C1309.7813,247.4844 1310.9375,247.1875 1311.6875,246.6406 C1312.2656,246.2344 1312.5938,245.7813 1312.5938,245.3906 C1312.5938,244.9375 1312.2031,244.5469 1311.7344,244.5469 C1311.5156,244.5469 1311.3125,244.625 1311.125,244.8125 C1310.6719,245.2969 1310.6719,245.2969 1310.4844,245.3906 C1310.0625,245.6563 1309.375,245.7813 1308.6094,245.7813 C1306.5625,245.7813 1305.2656,244.6875 1305.2656,242.9844 L1305.2656,241.8906 C1305.2656,240.1094 1306.5156,238.7969 1308.25,238.7969 C1308.8281,238.7969 1309.4375,238.9531 1309.9063,239.2031 C1310.3906,239.4844 1310.5625,239.7031 1310.6563,240.1094 C1310.7188,240.5156 1310.75,240.6406 1310.8906,240.7656 C1311.0313,240.9063 1311.2656,241.0156 1311.4844,241.0156 C1311.75,241.0156 1312.0156,240.875 1312.1875,240.6563 C1312.2969,240.5 1312.3281,240.3125 1312.3281,239.8906 L1312.3281,238.4688 C1312.3281,238.0313 1312.3125,237.9063 1312.2188,237.75 C1312.0625,237.4844 1311.7813,237.3438 1311.4844,237.3438 C1311.1875,237.3438 1310.9844,237.4375 1310.7656,237.75 L1310.5938,237.6719 Z " fill="#000000"/><text fill="#000000" font-family="sans-serif" font-size="14" lengthAdjust="spacing" textLength="235" x="1328.75" y="246.8467">Redux_SquadViewNewViewModel</text><line style="stroke:#181818;stroke-width:0.5;" x1="1223.5" x2="1636.5" y1="258" y2="258"/><polygon fill="none" points="1233.5,265,1229.5,271,1237.5,271" style="stroke:#1963A0;stroke-width:1.0;"/><text fill="#000000" font-family="sans-serif" font-size="14" lengthAdjust="spacing" textLength="141" x="1242.5" y="274.9951">store : MyAppStore</text><polygon fill="none" points="1233.5,281.2969,1229.5,287.2969,1237.5,287.2969" style="stroke:#1963A0;stroke-width:1.0;"/><text fill="#000000" font-family="sans-serif" font-size="14" lengthAdjust="spacing" textLength="389" x="1242.5" y="291.292">viewProperties : Redux_SquadViewNewViewProperties</text><polygon fill="none" points="1233.5,297.5938,1229.5,303.5938,1237.5,303.5938" style="stroke:#1963A0;stroke-width:1.0;"/><text fill="#000000" font-family="sans-serif" font-size="14" lengthAdjust="spacing" textLength="211" x="1242.5" y="307.5889">cancellable : AnyCancellable?</text><line style="stroke:#181818;stroke-width:0.5;" x1="1223.5" x2="1636.5" y1="314.8906" y2="314.8906"/><polygon fill="#4177AF" points="1233.5,321.8906,1229.5,327.8906,1237.5,327.8906" style="stroke:#1963A0;stroke-width:1.0;"/><text fill="#000000" font-family="sans-serif" font-size="14" lengthAdjust="spacing" textLength="77" x="1242.5" y="331.8857">init(store:)</text></g><!--MD5=[4b8f3fb6e4a705662aa61c55c0b09702]
class Redux_SquadViewNewViewModel2--><g id="elem_Redux_SquadViewNewViewModel2"><rect codeLine="54" fill="#F1F1F1" height="105.1563" id="Redux_SquadViewNewViewModel2" rx="2.5" ry="2.5" style="stroke:#181818;stroke-width:0.5;" width="338" x="1001" y="583.5"/><ellipse cx="1048.25" cy="603.6328" fill="#DA70D6" rx="11" ry="11" style="stroke:#A80036;stroke-width:1.0;"/><path d="M1049.4375,603.5859 L1052.1094,600.4141 C1052.7031,600.3984 1053.0781,600.1016 1053.0781,599.5703 C1053.0781,599.3047 1052.9531,599.0391 1052.7188,598.8672 C1052.5469,598.7578 1052.4063,598.7266 1051.9531,598.7266 L1050.4219,598.7266 C1050.0469,598.7266 1049.7813,598.7734 1049.6406,598.8984 C1049.4219,599.0391 1049.2813,599.3203 1049.2813,599.5703 C1049.2813,599.9453 1049.4531,600.1641 1049.9375,600.3984 L1048.3438,602.2578 L1046.7344,600.3984 C1047.2344,600.1641 1047.375,599.9453 1047.375,599.5703 C1047.375,599.3047 1047.25,599.0391 1047.0313,598.8672 C1046.8594,598.7578 1046.7188,598.7266 1046.2344,598.7266 L1044.6875,598.7266 C1044.5781,598.7266 1044.5625,598.7266 1044.3594,598.7578 C1043.8594,598.8047 1043.5781,599.1172 1043.5781,599.5703 C1043.5781,600.0859 1043.9375,600.3828 1044.5625,600.4141 L1047.25,603.5703 L1044.4219,606.9297 C1043.7969,606.9297 1043.4219,607.2578 1043.4219,607.7891 C1043.4219,608.0547 1043.5625,608.3047 1043.7813,608.4766 C1043.9375,608.5859 1044.1406,608.6328 1044.5469,608.6328 L1046.4219,608.6328 C1046.7813,608.6328 1047,608.6016 1047.1406,608.5078 C1047.3906,608.3672 1047.5469,608.0703 1047.5469,607.7891 C1047.5469,607.2734 1047.2188,606.9609 1046.6406,606.9297 L1048.3594,604.8984 L1050.0781,606.9297 C1049.4844,606.9609 1049.1563,607.2734 1049.1563,607.7891 C1049.1563,608.3516 1049.5156,608.6328 1050.2656,608.6328 L1052.1563,608.6328 C1052.5156,608.6328 1052.7344,608.6016 1052.875,608.5078 C1053.125,608.3672 1053.2813,608.0703 1053.2813,607.7891 C1053.2813,607.2578 1052.9219,606.9453 1052.2813,606.9297 L1049.4375,603.5859 Z " fill="#000000"/><text fill="#000000" font-family="sans-serif" font-size="12" font-style="italic" lengthAdjust="spacing" textLength="72" x="1150.25" y="599.6387">«extension»</text><text fill="#000000" font-family="sans-serif" font-size="14" lengthAdjust="spacing" textLength="235" x="1068.75" y="615.4639">Redux_SquadViewNewViewModel</text><line style="stroke:#181818;stroke-width:0.5;" x1="1002" x2="1338" y1="623.7656" y2="623.7656"/><line style="stroke:#181818;stroke-width:0.5;" x1="1002" x2="1338" y1="631.7656" y2="631.7656"/><text fill="#000000" font-family="sans-serif" font-size="14" lengthAdjust="spacing" textLength="205" x="1007" y="648.7607">loadShips(squad:squadData:)</text><text fill="#000000" font-family="sans-serif" font-size="14" lengthAdjust="spacing" textLength="184" x="1007" y="665.0576">updateSquad(squadData:)</text><text fill="#000000" font-family="sans-serif" font-size="14" lengthAdjust="spacing" textLength="326" x="1007" y="681.3545">updatePilotState(pilotStateData:pilotState:)</text></g><!--MD5=[28cd2535edc4dff2d81bf437d06ede36]
class Redux_SquadViewNewViewModel3--><g id="elem_Redux_SquadViewNewViewModel3"><rect codeLine="59" fill="#F1F1F1" height="121.4531" id="Redux_SquadViewNewViewModel3" rx="2.5" ry="2.5" style="stroke:#181818;stroke-width:0.5;" width="629" x="1374.5" y="575.5"/><ellipse cx="1567.25" cy="595.6328" fill="#DA70D6" rx="11" ry="11" style="stroke:#A80036;stroke-width:1.0;"/><path d="M1568.4375,595.5859 L1571.1094,592.4141 C1571.7031,592.3984 1572.0781,592.1016 1572.0781,591.5703 C1572.0781,591.3047 1571.9531,591.0391 1571.7188,590.8672 C1571.5469,590.7578 1571.4063,590.7266 1570.9531,590.7266 L1569.4219,590.7266 C1569.0469,590.7266 1568.7813,590.7734 1568.6406,590.8984 C1568.4219,591.0391 1568.2813,591.3203 1568.2813,591.5703 C1568.2813,591.9453 1568.4531,592.1641 1568.9375,592.3984 L1567.3438,594.2578 L1565.7344,592.3984 C1566.2344,592.1641 1566.375,591.9453 1566.375,591.5703 C1566.375,591.3047 1566.25,591.0391 1566.0313,590.8672 C1565.8594,590.7578 1565.7188,590.7266 1565.2344,590.7266 L1563.6875,590.7266 C1563.5781,590.7266 1563.5625,590.7266 1563.3594,590.7578 C1562.8594,590.8047 1562.5781,591.1172 1562.5781,591.5703 C1562.5781,592.0859 1562.9375,592.3828 1563.5625,592.4141 L1566.25,595.5703 L1563.4219,598.9297 C1562.7969,598.9297 1562.4219,599.2578 1562.4219,599.7891 C1562.4219,600.0547 1562.5625,600.3047 1562.7813,600.4766 C1562.9375,600.5859 1563.1406,600.6328 1563.5469,600.6328 L1565.4219,600.6328 C1565.7813,600.6328 1566,600.6016 1566.1406,600.5078 C1566.3906,600.3672 1566.5469,600.0703 1566.5469,599.7891 C1566.5469,599.2734 1566.2188,598.9609 1565.6406,598.9297 L1567.3594,596.8984 L1569.0781,598.9297 C1568.4844,598.9609 1568.1563,599.2734 1568.1563,599.7891 C1568.1563,600.3516 1568.5156,600.6328 1569.2656,600.6328 L1571.1563,600.6328 C1571.5156,600.6328 1571.7344,600.6016 1571.875,600.5078 C1572.125,600.3672 1572.2813,600.0703 1572.2813,599.7891 C1572.2813,599.2578 1571.9219,598.9453 1571.2813,598.9297 L1568.4375,595.5859 Z " fill="#000000"/><text fill="#000000" font-family="sans-serif" font-size="12" font-style="italic" lengthAdjust="spacing" textLength="72" x="1669.25" y="591.6387">«extension»</text><text fill="#000000" font-family="sans-serif" font-size="14" lengthAdjust="spacing" textLength="235" x="1587.75" y="607.4639">Redux_SquadViewNewViewModel</text><line style="stroke:#181818;stroke-width:0.5;" x1="1375.5" x2="2002.5" y1="615.7656" y2="615.7656"/><text fill="#000000" font-family="sans-serif" font-size="14" lengthAdjust="spacing" textLength="549" x="1380.5" y="632.7607">viewPropertiesPublished : Published&lt;Redux_SquadViewNewViewProperties&gt;</text><text fill="#000000" font-family="sans-serif" font-size="14" lengthAdjust="spacing" textLength="617" x="1380.5" y="649.0576">viewPropertiesPublisher : Published&lt;Redux_SquadViewNewViewProperties&gt;.Publisher</text><line style="stroke:#181818;stroke-width:0.5;" x1="1375.5" x2="2002.5" y1="656.3594" y2="656.3594"/><text fill="#000000" font-family="sans-serif" font-size="14" lengthAdjust="spacing" textLength="188" x="1380.5" y="673.3545">configureViewProperties()</text><text fill="#000000" font-family="sans-serif" font-size="14" lengthAdjust="spacing" textLength="198" x="1380.5" y="689.6514">buildViewProperties(state:)</text></g><!--MD5=[ee5d665c2bfcb2ca0197a79d18fb0917]
class Redux_SquadViewNewViewProperties--><g id="elem_Redux_SquadViewNewViewProperties"><rect codeLine="65" fill="#F1F1F1" height="72.5625" id="Redux_SquadViewNewViewProperties" rx="2.5" ry="2.5" style="stroke:#181818;stroke-width:0.5;" width="300" x="2228" y="246"/><ellipse cx="2243" cy="266.1328" fill="#87CEEB" rx="11" ry="11" style="stroke:#A80036;stroke-width:1.0;"/><path d="M2246.7813,262.1016 C2246.7813,261.6641 2246.7656,261.5234 2246.6719,261.3672 C2246.5313,261.1328 2246.25,260.9766 2245.9531,260.9766 C2245.6094,260.9766 2245.4688,261.1172 2245.2969,261.5391 C2244.7031,261.1641 2243.9531,260.9766 2243.0781,260.9766 C2240.9688,260.9766 2239.3906,262.2734 2239.3906,263.9922 C2239.3906,264.9609 2239.9219,265.8672 2240.7813,266.3516 C2241.3281,266.6641 2241.875,266.8359 2242.9844,267.0234 C2244.1406,267.2266 2244.4063,267.2891 2244.7656,267.4766 C2245.1406,267.6797 2245.375,268.0234 2245.375,268.3828 C2245.375,269.1172 2244.3906,269.6641 2243.1406,269.6641 C2242.0156,269.6641 2240.9375,269.1797 2240.7656,268.5703 C2240.6406,268.1016 2240.6406,268.1016 2240.5156,267.9922 C2240.3594,267.8359 2240.1406,267.7422 2239.9063,267.7422 C2239.625,267.7422 2239.375,267.8672 2239.2031,268.0859 C2239.0938,268.2578 2239.0469,268.4453 2239.0469,268.8672 L2239.0469,269.9922 C2239.0469,270.7578 2239.3281,271.1172 2239.9219,271.1172 C2240.1875,271.1172 2240.3125,271.0547 2240.5938,270.7109 C2241.4375,271.1484 2242.3281,271.3672 2243.25,271.3672 C2245.5781,271.3672 2247.1406,270.1797 2247.1406,268.4141 C2247.1406,267.5234 2246.8281,266.8359 2246.1406,266.2891 C2245.6094,265.8672 2244.9688,265.6172 2243.4844,265.3516 C2242.2188,265.1172 2242.125,265.0859 2241.7969,264.9141 C2241.4219,264.7266 2241.1563,264.3359 2241.1563,263.9766 C2241.1563,263.2422 2242.0156,262.6797 2243.0781,262.6797 C2244.1406,262.6797 2244.9531,263.1484 2245.1094,263.8203 C2245.2188,264.3672 2245.2188,264.3672 2245.3438,264.5078 C2245.4844,264.6328 2245.7188,264.7422 2245.9531,264.7422 C2246.2188,264.7422 2246.4688,264.6016 2246.6406,264.3828 C2246.75,264.2109 2246.7813,264.0703 2246.7813,263.6016 L2246.7813,262.1016 Z " fill="#000000"/><text fill="#000000" font-family="sans-serif" font-size="12" font-style="italic" lengthAdjust="spacing" textLength="50" x="2366" y="262.1387">«struct»</text><text fill="#000000" font-family="sans-serif" font-size="14" lengthAdjust="spacing" textLength="268" x="2257" y="277.9639">Redux_SquadViewNewViewProperties</text><line style="stroke:#181818;stroke-width:0.5;" x1="2229" x2="2527" y1="286.2656" y2="286.2656"/><polygon fill="none" points="2239,293.2656,2235,299.2656,2243,299.2656" style="stroke:#1963A0;stroke-width:1.0;"/><text fill="#000000" font-family="sans-serif" font-size="14" lengthAdjust="spacing" textLength="158" x="2248" y="303.2607">shipPilots : [ShipPilot]</text><line style="stroke:#181818;stroke-width:0.5;" x1="2229" x2="2527" y1="310.5625" y2="310.5625"/></g><!--MD5=[cdc7345a93d0d18a9b9de3446aba4fc3]
class Redux_SquadViewNewViewProperties4--><g id="elem_Redux_SquadViewNewViewProperties4"><rect codeLine="68" fill="#F1F1F1" height="137.75" id="Redux_SquadViewNewViewProperties4" rx="2.5" ry="2.5" style="stroke:#181818;stroke-width:0.5;" width="329" x="2038.5" y="567"/><ellipse cx="2066.55" cy="587.1328" fill="#DA70D6" rx="11" ry="11" style="stroke:#A80036;stroke-width:1.0;"/><path d="M2067.7375,587.0859 L2070.4094,583.9141 C2071.0031,583.8984 2071.3781,583.6016 2071.3781,583.0703 C2071.3781,582.8047 2071.2531,582.5391 2071.0188,582.3672 C2070.8469,582.2578 2070.7063,582.2266 2070.2531,582.2266 L2068.7219,582.2266 C2068.3469,582.2266 2068.0813,582.2734 2067.9406,582.3984 C2067.7219,582.5391 2067.5813,582.8203 2067.5813,583.0703 C2067.5813,583.4453 2067.7531,583.6641 2068.2375,583.8984 L2066.6438,585.7578 L2065.0344,583.8984 C2065.5344,583.6641 2065.675,583.4453 2065.675,583.0703 C2065.675,582.8047 2065.55,582.5391 2065.3313,582.3672 C2065.1594,582.2578 2065.0188,582.2266 2064.5344,582.2266 L2062.9875,582.2266 C2062.8781,582.2266 2062.8625,582.2266 2062.6594,582.2578 C2062.1594,582.3047 2061.8781,582.6172 2061.8781,583.0703 C2061.8781,583.5859 2062.2375,583.8828 2062.8625,583.9141 L2065.55,587.0703 L2062.7219,590.4297 C2062.0969,590.4297 2061.7219,590.7578 2061.7219,591.2891 C2061.7219,591.5547 2061.8625,591.8047 2062.0813,591.9766 C2062.2375,592.0859 2062.4406,592.1328 2062.8469,592.1328 L2064.7219,592.1328 C2065.0813,592.1328 2065.3,592.1016 2065.4406,592.0078 C2065.6906,591.8672 2065.8469,591.5703 2065.8469,591.2891 C2065.8469,590.7734 2065.5188,590.4609 2064.9406,590.4297 L2066.6594,588.3984 L2068.3781,590.4297 C2067.7844,590.4609 2067.4563,590.7734 2067.4563,591.2891 C2067.4563,591.8516 2067.8156,592.1328 2068.5656,592.1328 L2070.4563,592.1328 C2070.8156,592.1328 2071.0344,592.1016 2071.175,592.0078 C2071.425,591.8672 2071.5813,591.5703 2071.5813,591.2891 C2071.5813,590.7578 2071.2219,590.4453 2070.5813,590.4297 L2067.7375,587.0859 Z " fill="#000000"/><text fill="#000000" font-family="sans-serif" font-size="12" font-style="italic" lengthAdjust="spacing" textLength="72" x="2181.45" y="583.1387">«extension»</text><text fill="#000000" font-family="sans-serif" font-size="14" lengthAdjust="spacing" textLength="268" x="2083.45" y="598.9639">Redux_SquadViewNewViewProperties</text><line style="stroke:#181818;stroke-width:0.5;" x1="2039.5" x2="2366.5" y1="607.2656" y2="607.2656"/><text fill="#000000" font-family="sans-serif" font-size="14" lengthAdjust="spacing" text-decoration="underline" textLength="317" x="2044.5" y="624.2607">none : Redux_SquadViewNewViewProperties</text><text fill="#000000" font-family="sans-serif" font-size="14" lengthAdjust="spacing" textLength="165" x="2044.5" y="640.5576">revealedDialCount : Int</text><text fill="#000000" font-family="sans-serif" font-size="14" lengthAdjust="spacing" textLength="152" x="2044.5" y="656.8545">hiddenDialCount : Int</text><text fill="#000000" font-family="sans-serif" font-size="14" lengthAdjust="spacing" textLength="202" x="2044.5" y="673.1514">dialsState : SquadDialsState</text><text fill="#000000" font-family="sans-serif" font-size="14" lengthAdjust="spacing" textLength="83" x="2044.5" y="689.4482">test: String</text><line style="stroke:#181818;stroke-width:0.5;" x1="2039.5" x2="2366.5" y1="696.75" y2="696.75"/></g><!--MD5=[a1300f85428e97c633e18c5139a7e633]
class Redux_SquadViewNewViewProperties5--><g id="elem_Redux_SquadViewNewViewProperties5"><rect codeLine="75" fill="#F1F1F1" height="72.5625" id="Redux_SquadViewNewViewProperties5" rx="2.5" ry="2.5" style="stroke:#181818;stroke-width:0.5;" width="300" x="2403" y="599.5"/><ellipse cx="2418" cy="619.6328" fill="#DA70D6" rx="11" ry="11" style="stroke:#A80036;stroke-width:1.0;"/><path d="M2419.1875,619.5859 L2421.8594,616.4141 C2422.4531,616.3984 2422.8281,616.1016 2422.8281,615.5703 C2422.8281,615.3047 2422.7031,615.0391 2422.4688,614.8672 C2422.2969,614.7578 2422.1563,614.7266 2421.7031,614.7266 L2420.1719,614.7266 C2419.7969,614.7266 2419.5313,614.7734 2419.3906,614.8984 C2419.1719,615.0391 2419.0313,615.3203 2419.0313,615.5703 C2419.0313,615.9453 2419.2031,616.1641 2419.6875,616.3984 L2418.0938,618.2578 L2416.4844,616.3984 C2416.9844,616.1641 2417.125,615.9453 2417.125,615.5703 C2417.125,615.3047 2417,615.0391 2416.7813,614.8672 C2416.6094,614.7578 2416.4688,614.7266 2415.9844,614.7266 L2414.4375,614.7266 C2414.3281,614.7266 2414.3125,614.7266 2414.1094,614.7578 C2413.6094,614.8047 2413.3281,615.1172 2413.3281,615.5703 C2413.3281,616.0859 2413.6875,616.3828 2414.3125,616.4141 L2417,619.5703 L2414.1719,622.9297 C2413.5469,622.9297 2413.1719,623.2578 2413.1719,623.7891 C2413.1719,624.0547 2413.3125,624.3047 2413.5313,624.4766 C2413.6875,624.5859 2413.8906,624.6328 2414.2969,624.6328 L2416.1719,624.6328 C2416.5313,624.6328 2416.75,624.6016 2416.8906,624.5078 C2417.1406,624.3672 2417.2969,624.0703 2417.2969,623.7891 C2417.2969,623.2734 2416.9688,622.9609 2416.3906,622.9297 L2418.1094,620.8984 L2419.8281,622.9297 C2419.2344,622.9609 2418.9063,623.2734 2418.9063,623.7891 C2418.9063,624.3516 2419.2656,624.6328 2420.0156,624.6328 L2421.9063,624.6328 C2422.2656,624.6328 2422.4844,624.6016 2422.625,624.5078 C2422.875,624.3672 2423.0313,624.0703 2423.0313,623.7891 C2423.0313,623.2578 2422.6719,622.9453 2422.0313,622.9297 L2419.1875,619.5859 Z " fill="#000000"/><text fill="#000000" font-family="sans-serif" font-size="12" font-style="italic" lengthAdjust="spacing" textLength="72" x="2530" y="615.6387">«extension»</text><text fill="#000000" font-family="sans-serif" font-size="14" lengthAdjust="spacing" textLength="268" x="2432" y="631.4639">Redux_SquadViewNewViewProperties</text><line style="stroke:#181818;stroke-width:0.5;" x1="2404" x2="2702" y1="639.7656" y2="639.7656"/><text fill="#000000" font-family="sans-serif" font-size="14" lengthAdjust="spacing" textLength="139" x="2409" y="656.7607">description : String</text><line style="stroke:#181818;stroke-width:0.5;" x1="2404" x2="2702" y1="664.0625" y2="664.0625"/></g><!--MD5=[11075b5df1e6873e11dc95f4d82883e3]
class SquadDialsState--><g id="elem_SquadDialsState"><rect codeLine="78" fill="#F1F1F1" height="105.1563" id="SquadDialsState" rx="2.5" ry="2.5" style="stroke:#181818;stroke-width:0.5;" width="165" x="2563.5" y="230"/><ellipse cx="2585.7" cy="250.1328" fill="#B0C4DE" rx="11" ry="11" style="stroke:#A80036;stroke-width:1.0;"/><path d="M2584.4969,251.0078 L2585.95,251.0078 L2585.95,251.1172 C2585.95,251.5234 2585.9813,251.6797 2586.0594,251.8359 C2586.2156,252.0859 2586.4969,252.2422 2586.7938,252.2422 C2587.0438,252.2422 2587.3094,252.1016 2587.4656,251.8828 C2587.5906,251.7266 2587.6219,251.5703 2587.6219,251.1172 L2587.6219,249.1953 C2587.6219,249.0391 2587.6219,248.9922 2587.6063,248.8359 C2587.5438,248.3672 2587.2313,248.0547 2586.7781,248.0547 C2586.5281,248.0547 2586.2625,248.1953 2586.0906,248.4141 C2585.9813,248.5859 2585.95,248.7422 2585.95,249.1953 L2585.95,249.3203 L2584.4969,249.3203 L2584.4969,246.9141 L2588.4813,246.9141 L2588.4813,247.7734 C2588.4813,248.1797 2588.5125,248.3516 2588.5906,248.5078 C2588.7625,248.7578 2589.0438,248.9141 2589.325,248.9141 C2589.5906,248.9141 2589.8563,248.7734 2590.0281,248.5547 C2590.1375,248.3828 2590.1688,248.2422 2590.1688,247.7734 L2590.1688,245.2266 L2582.5438,245.2266 C2582.1063,245.2266 2581.9813,245.2422 2581.825,245.3359 C2581.575,245.4922 2581.4188,245.7891 2581.4188,246.0703 C2581.4188,246.3516 2581.5594,246.6016 2581.7781,246.7734 C2581.9344,246.8828 2582.1219,246.9141 2582.5438,246.9141 L2582.7938,246.9141 L2582.7938,253.4297 L2582.5438,253.4297 C2582.1375,253.4297 2581.9813,253.4453 2581.825,253.5547 C2581.575,253.7266 2581.4188,253.9922 2581.4188,254.2891 C2581.4188,254.5547 2581.5594,254.8047 2581.7781,254.9609 C2581.9188,255.0859 2582.1531,255.1328 2582.5438,255.1328 L2590.5438,255.1328 L2590.5438,252.5547 C2590.5438,252.1172 2590.5125,251.9766 2590.4344,251.8203 C2590.2625,251.5703 2589.9813,251.4141 2589.7,251.4141 C2589.4344,251.4141 2589.1688,251.5234 2588.9969,251.7734 C2588.8875,251.9297 2588.8563,252.0703 2588.8563,252.5547 L2588.8563,253.4297 L2584.4969,253.4297 L2584.4969,251.0078 Z " fill="#000000"/><text fill="#000000" font-family="sans-serif" font-size="12" font-style="italic" lengthAdjust="spacing" textLength="49" x="2635.3" y="246.1387">«enum»</text><text fill="#000000" font-family="sans-serif" font-size="14" lengthAdjust="spacing" textLength="117" x="2601.3" y="261.9639">SquadDialsState</text><line style="stroke:#181818;stroke-width:0.5;" x1="2564.5" x2="2727.5" y1="270.2656" y2="270.2656"/><polygon fill="none" points="2574.5,277.2656,2570.5,283.2656,2578.5,283.2656" style="stroke:#1963A0;stroke-width:1.0;"/><text fill="#000000" font-family="sans-serif" font-size="14" lengthAdjust="spacing" textLength="62" x="2583.5" y="287.2607">revealed</text><polygon fill="none" points="2574.5,293.5625,2570.5,299.5625,2578.5,299.5625" style="stroke:#1963A0;stroke-width:1.0;"/><text fill="#000000" font-family="sans-serif" font-size="14" lengthAdjust="spacing" textLength="49" x="2583.5" y="303.5576">hidden</text><polygon fill="none" points="2574.5,309.8594,2570.5,315.8594,2578.5,315.8594" style="stroke:#1963A0;stroke-width:1.0;"/><text fill="#000000" font-family="sans-serif" font-size="14" lengthAdjust="spacing" textLength="139" x="2583.5" y="319.8545">description : String</text><line style="stroke:#181818;stroke-width:0.5;" x1="2564.5" x2="2727.5" y1="327.1563" y2="327.1563"/></g><!--MD5=[9871a4db6b4d5f24cb1895c8fbc2e5e3]
class ShipGridView--><g id="elem_ShipGridView"><rect codeLine="83" fill="#F1F1F1" height="137.75" id="ShipGridView" rx="2.5" ry="2.5" style="stroke:#181818;stroke-width:0.5;" width="396" x="9" y="213.5"/><ellipse cx="154.75" cy="233.6328" fill="#87CEEB" rx="11" ry="11" style="stroke:#A80036;stroke-width:1.0;"/><path d="M158.5313,229.6016 C158.5313,229.1641 158.5156,229.0234 158.4219,228.8672 C158.2813,228.6328 158,228.4766 157.7031,228.4766 C157.3594,228.4766 157.2188,228.6172 157.0469,229.0391 C156.4531,228.6641 155.7031,228.4766 154.8281,228.4766 C152.7188,228.4766 151.1406,229.7734 151.1406,231.4922 C151.1406,232.4609 151.6719,233.3672 152.5313,233.8516 C153.0781,234.1641 153.625,234.3359 154.7344,234.5234 C155.8906,234.7266 156.1563,234.7891 156.5156,234.9766 C156.8906,235.1797 157.125,235.5234 157.125,235.8828 C157.125,236.6172 156.1406,237.1641 154.8906,237.1641 C153.7656,237.1641 152.6875,236.6797 152.5156,236.0703 C152.3906,235.6016 152.3906,235.6016 152.2656,235.4922 C152.1094,235.3359 151.8906,235.2422 151.6563,235.2422 C151.375,235.2422 151.125,235.3672 150.9531,235.5859 C150.8438,235.7578 150.7969,235.9453 150.7969,236.3672 L150.7969,237.4922 C150.7969,238.2578 151.0781,238.6172 151.6719,238.6172 C151.9375,238.6172 152.0625,238.5547 152.3438,238.2109 C153.1875,238.6484 154.0781,238.8672 155,238.8672 C157.3281,238.8672 158.8906,237.6797 158.8906,235.9141 C158.8906,235.0234 158.5781,234.3359 157.8906,233.7891 C157.3594,233.3672 156.7188,233.1172 155.2344,232.8516 C153.9688,232.6172 153.875,232.5859 153.5469,232.4141 C153.1719,232.2266 152.9063,231.8359 152.9063,231.4766 C152.9063,230.7422 153.7656,230.1797 154.8281,230.1797 C155.8906,230.1797 156.7031,230.6484 156.8594,231.3203 C156.9688,231.8672 156.9688,231.8672 157.0938,232.0078 C157.2344,232.1328 157.4688,232.2422 157.7031,232.2422 C157.9688,232.2422 158.2188,232.1016 158.3906,231.8828 C158.5,231.7109 158.5313,231.5703 158.5313,231.1016 L158.5313,229.6016 Z " fill="#000000"/><text fill="#000000" font-family="sans-serif" font-size="12" font-style="italic" lengthAdjust="spacing" textLength="50" x="198.25" y="229.6387">«struct»</text><text fill="#000000" font-family="sans-serif" font-size="14" lengthAdjust="spacing" textLength="96" x="175.25" y="245.4639">ShipGridView</text><line style="stroke:#181818;stroke-width:0.5;" x1="10" x2="404" y1="253.7656" y2="253.7656"/><polygon fill="none" points="20,260.7656,16,266.7656,24,266.7656" style="stroke:#1963A0;stroke-width:1.0;"/><text fill="#000000" font-family="sans-serif" font-size="14" lengthAdjust="spacing" textLength="158" x="29" y="270.7607">shipPilots : [ShipPilot]</text><polygon fill="none" points="20,277.0625,16,283.0625,24,283.0625" style="stroke:#1963A0;stroke-width:1.0;"/><text fill="#000000" font-family="sans-serif" font-size="14" lengthAdjust="spacing" textLength="126" x="29" y="287.0576">body : some View</text><polygon fill="none" points="20,293.3594,16,299.3594,24,299.3594" style="stroke:#1963A0;stroke-width:1.0;"/><text fill="#000000" font-family="sans-serif" font-size="14" lengthAdjust="spacing" textLength="134" x="29" y="303.3545">body2 : some View</text><line style="stroke:#181818;stroke-width:0.5;" x1="10" x2="404" y1="310.6563" y2="310.6563"/><polygon fill="#4177AF" points="20,317.6563,16,323.6563,24,323.6563" style="stroke:#1963A0;stroke-width:1.0;"/><text fill="#000000" font-family="sans-serif" font-size="14" lengthAdjust="spacing" textLength="370" x="29" y="327.6514">updatePilotState : (PilotStateData, PilotState) -&gt; ()</text><polygon fill="#4177AF" points="20,333.9531,16,339.9531,24,339.9531" style="stroke:#1963A0;stroke-width:1.0;"/><text fill="#000000" font-family="sans-serif" font-size="14" lengthAdjust="spacing" textLength="195" x="29" y="343.9482">buildShipButton(shipPilot:)</text></g><!--MD5=[c045e12321b83266d36d22b9096c24ea]
class View--><g id="elem_View"><rect fill="#F1F1F1" height="48" id="View" rx="2.5" ry="2.5" style="stroke:#181818;stroke-width:0.5;" width="66" x="303" y="7"/><ellipse cx="318" cy="23" fill="#ADD1B2" rx="11" ry="11" style="stroke:#181818;stroke-width:1.0;"/><path d="M320.3438,18.6719 C319.4063,18.2344 318.8125,18.0938 317.9375,18.0938 C315.3125,18.0938 313.3125,20.1719 313.3125,22.8906 L313.3125,24.0156 C313.3125,26.5938 315.4219,28.4844 318.3125,28.4844 C319.5313,28.4844 320.6875,28.1875 321.4375,27.6406 C322.0156,27.2344 322.3438,26.7813 322.3438,26.3906 C322.3438,25.9375 321.9531,25.5469 321.4844,25.5469 C321.2656,25.5469 321.0625,25.625 320.875,25.8125 C320.4219,26.2969 320.4219,26.2969 320.2344,26.3906 C319.8125,26.6563 319.125,26.7813 318.3594,26.7813 C316.3125,26.7813 315.0156,25.6875 315.0156,23.9844 L315.0156,22.8906 C315.0156,21.1094 316.2656,19.7969 318,19.7969 C318.5781,19.7969 319.1875,19.9531 319.6563,20.2031 C320.1406,20.4844 320.3125,20.7031 320.4063,21.1094 C320.4688,21.5156 320.5,21.6406 320.6406,21.7656 C320.7813,21.9063 321.0156,22.0156 321.2344,22.0156 C321.5,22.0156 321.7656,21.875 321.9375,21.6563 C322.0469,21.5 322.0781,21.3125 322.0781,20.8906 L322.0781,19.4688 C322.0781,19.0313 322.0625,18.9063 321.9688,18.75 C321.8125,18.4844 321.5313,18.3438 321.2344,18.3438 C320.9375,18.3438 320.7344,18.4375 320.5156,18.75 L320.3438,18.6719 Z " fill="#000000"/><text fill="#000000" font-family="sans-serif" font-size="14" lengthAdjust="spacing" textLength="34" x="332" y="27.8467">View</text><line style="stroke:#181818;stroke-width:0.5;" x1="304" x2="368" y1="39" y2="39"/><line style="stroke:#181818;stroke-width:0.5;" x1="304" x2="368" y1="47" y2="47"/></g><!--MD5=[4872573ac17a6ba2d985c1ad1e834687]
class DamagedSquadRepresenting--><g id="elem_DamagedSquadRepresenting"><rect fill="#F1F1F1" height="48" id="DamagedSquadRepresenting" rx="2.5" ry="2.5" style="stroke:#181818;stroke-width:0.5;" width="241" x="494.5" y="7"/><ellipse cx="509.5" cy="23" fill="#ADD1B2" rx="11" ry="11" style="stroke:#181818;stroke-width:1.0;"/><path d="M511.8438,18.6719 C510.9063,18.2344 510.3125,18.0938 509.4375,18.0938 C506.8125,18.0938 504.8125,20.1719 504.8125,22.8906 L504.8125,24.0156 C504.8125,26.5938 506.9219,28.4844 509.8125,28.4844 C511.0313,28.4844 512.1875,28.1875 512.9375,27.6406 C513.5156,27.2344 513.8438,26.7813 513.8438,26.3906 C513.8438,25.9375 513.4531,25.5469 512.9844,25.5469 C512.7656,25.5469 512.5625,25.625 512.375,25.8125 C511.9219,26.2969 511.9219,26.2969 511.7344,26.3906 C511.3125,26.6563 510.625,26.7813 509.8594,26.7813 C507.8125,26.7813 506.5156,25.6875 506.5156,23.9844 L506.5156,22.8906 C506.5156,21.1094 507.7656,19.7969 509.5,19.7969 C510.0781,19.7969 510.6875,19.9531 511.1563,20.2031 C511.6406,20.4844 511.8125,20.7031 511.9063,21.1094 C511.9688,21.5156 512,21.6406 512.1406,21.7656 C512.2813,21.9063 512.5156,22.0156 512.7344,22.0156 C513,22.0156 513.2656,21.875 513.4375,21.6563 C513.5469,21.5 513.5781,21.3125 513.5781,20.8906 L513.5781,19.4688 C513.5781,19.0313 513.5625,18.9063 513.4688,18.75 C513.3125,18.4844 513.0313,18.3438 512.7344,18.3438 C512.4375,18.3438 512.2344,18.4375 512.0156,18.75 L511.8438,18.6719 Z " fill="#000000"/><text fill="#000000" font-family="sans-serif" font-size="14" lengthAdjust="spacing" textLength="209" x="523.5" y="27.8467">DamagedSquadRepresenting</text><line style="stroke:#181818;stroke-width:0.5;" x1="495.5" x2="734.5" y1="39" y2="39"/><line style="stroke:#181818;stroke-width:0.5;" x1="495.5" x2="734.5" y1="47" y2="47"/></g><!--MD5=[6d0e0a2de5627cbf2a083bf66173c953]
class ObservableObject--><g id="elem_ObservableObject"><rect fill="#F1F1F1" height="48" id="ObservableObject" rx="2.5" ry="2.5" style="stroke:#181818;stroke-width:0.5;" width="163" x="1230.5" y="7"/><ellipse cx="1245.5" cy="23" fill="#ADD1B2" rx="11" ry="11" style="stroke:#181818;stroke-width:1.0;"/><path d="M1247.8438,18.6719 C1246.9063,18.2344 1246.3125,18.0938 1245.4375,18.0938 C1242.8125,18.0938 1240.8125,20.1719 1240.8125,22.8906 L1240.8125,24.0156 C1240.8125,26.5938 1242.9219,28.4844 1245.8125,28.4844 C1247.0313,28.4844 1248.1875,28.1875 1248.9375,27.6406 C1249.5156,27.2344 1249.8438,26.7813 1249.8438,26.3906 C1249.8438,25.9375 1249.4531,25.5469 1248.9844,25.5469 C1248.7656,25.5469 1248.5625,25.625 1248.375,25.8125 C1247.9219,26.2969 1247.9219,26.2969 1247.7344,26.3906 C1247.3125,26.6563 1246.625,26.7813 1245.8594,26.7813 C1243.8125,26.7813 1242.5156,25.6875 1242.5156,23.9844 L1242.5156,22.8906 C1242.5156,21.1094 1243.7656,19.7969 1245.5,19.7969 C1246.0781,19.7969 1246.6875,19.9531 1247.1563,20.2031 C1247.6406,20.4844 1247.8125,20.7031 1247.9063,21.1094 C1247.9688,21.5156 1248,21.6406 1248.1406,21.7656 C1248.2813,21.9063 1248.5156,22.0156 1248.7344,22.0156 C1249,22.0156 1249.2656,21.875 1249.4375,21.6563 C1249.5469,21.5 1249.5781,21.3125 1249.5781,20.8906 L1249.5781,19.4688 C1249.5781,19.0313 1249.5625,18.9063 1249.4688,18.75 C1249.3125,18.4844 1249.0313,18.3438 1248.7344,18.3438 C1248.4375,18.3438 1248.2344,18.4375 1248.0156,18.75 L1247.8438,18.6719 Z " fill="#000000"/><text fill="#000000" font-family="sans-serif" font-size="14" lengthAdjust="spacing" textLength="131" x="1259.5" y="27.8467">ObservableObject</text><line style="stroke:#181818;stroke-width:0.5;" x1="1231.5" x2="1392.5" y1="39" y2="39"/><line style="stroke:#181818;stroke-width:0.5;" x1="1231.5" x2="1392.5" y1="47" y2="47"/></g><!--MD5=[6ab791e74407b584732145e3b777e9a1]
class ViewPropertyRepresentable--><g id="elem_ViewPropertyRepresentable"><rect fill="#F1F1F1" height="48" id="ViewPropertyRepresentable" rx="2.5" ry="2.5" style="stroke:#181818;stroke-width:0.5;" width="237" x="1428.5" y="7"/><ellipse cx="1443.5" cy="23" fill="#ADD1B2" rx="11" ry="11" style="stroke:#181818;stroke-width:1.0;"/><path d="M1445.8438,18.6719 C1444.9063,18.2344 1444.3125,18.0938 1443.4375,18.0938 C1440.8125,18.0938 1438.8125,20.1719 1438.8125,22.8906 L1438.8125,24.0156 C1438.8125,26.5938 1440.9219,28.4844 1443.8125,28.4844 C1445.0313,28.4844 1446.1875,28.1875 1446.9375,27.6406 C1447.5156,27.2344 1447.8438,26.7813 1447.8438,26.3906 C1447.8438,25.9375 1447.4531,25.5469 1446.9844,25.5469 C1446.7656,25.5469 1446.5625,25.625 1446.375,25.8125 C1445.9219,26.2969 1445.9219,26.2969 1445.7344,26.3906 C1445.3125,26.6563 1444.625,26.7813 1443.8594,26.7813 C1441.8125,26.7813 1440.5156,25.6875 1440.5156,23.9844 L1440.5156,22.8906 C1440.5156,21.1094 1441.7656,19.7969 1443.5,19.7969 C1444.0781,19.7969 1444.6875,19.9531 1445.1563,20.2031 C1445.6406,20.4844 1445.8125,20.7031 1445.9063,21.1094 C1445.9688,21.5156 1446,21.6406 1446.1406,21.7656 C1446.2813,21.9063 1446.5156,22.0156 1446.7344,22.0156 C1447,22.0156 1447.2656,21.875 1447.4375,21.6563 C1447.5469,21.5 1447.5781,21.3125 1447.5781,20.8906 L1447.5781,19.4688 C1447.5781,19.0313 1447.5625,18.9063 1447.4688,18.75 C1447.3125,18.4844 1447.0313,18.3438 1446.7344,18.3438 C1446.4375,18.3438 1446.2344,18.4375 1446.0156,18.75 L1445.8438,18.6719 Z " fill="#000000"/><text fill="#000000" font-family="sans-serif" font-size="14" lengthAdjust="spacing" textLength="205" x="1457.5" y="27.8467">ViewPropertyRepresentable</text><line style="stroke:#181818;stroke-width:0.5;" x1="1429.5" x2="1664.5" y1="39" y2="39"/><line style="stroke:#181818;stroke-width:0.5;" x1="1429.5" x2="1664.5" y1="47" y2="47"/></g><!--MD5=[8c6146d5f8f55ad092dcd6f9c39beda3]
class CustomStringConvertible--><g id="elem_CustomStringConvertible"><rect fill="#F1F1F1" height="48" id="CustomStringConvertible" rx="2.5" ry="2.5" style="stroke:#181818;stroke-width:0.5;" width="216" x="2449" y="7"/><ellipse cx="2464" cy="23" fill="#ADD1B2" rx="11" ry="11" style="stroke:#181818;stroke-width:1.0;"/><path d="M2466.3438,18.6719 C2465.4063,18.2344 2464.8125,18.0938 2463.9375,18.0938 C2461.3125,18.0938 2459.3125,20.1719 2459.3125,22.8906 L2459.3125,24.0156 C2459.3125,26.5938 2461.4219,28.4844 2464.3125,28.4844 C2465.5313,28.4844 2466.6875,28.1875 2467.4375,27.6406 C2468.0156,27.2344 2468.3438,26.7813 2468.3438,26.3906 C2468.3438,25.9375 2467.9531,25.5469 2467.4844,25.5469 C2467.2656,25.5469 2467.0625,25.625 2466.875,25.8125 C2466.4219,26.2969 2466.4219,26.2969 2466.2344,26.3906 C2465.8125,26.6563 2465.125,26.7813 2464.3594,26.7813 C2462.3125,26.7813 2461.0156,25.6875 2461.0156,23.9844 L2461.0156,22.8906 C2461.0156,21.1094 2462.2656,19.7969 2464,19.7969 C2464.5781,19.7969 2465.1875,19.9531 2465.6563,20.2031 C2466.1406,20.4844 2466.3125,20.7031 2466.4063,21.1094 C2466.4688,21.5156 2466.5,21.6406 2466.6406,21.7656 C2466.7813,21.9063 2467.0156,22.0156 2467.2344,22.0156 C2467.5,22.0156 2467.7656,21.875 2467.9375,21.6563 C2468.0469,21.5 2468.0781,21.3125 2468.0781,20.8906 L2468.0781,19.4688 C2468.0781,19.0313 2468.0625,18.9063 2467.9688,18.75 C2467.8125,18.4844 2467.5313,18.3438 2467.2344,18.3438 C2466.9375,18.3438 2466.7344,18.4375 2466.5156,18.75 L2466.3438,18.6719 Z " fill="#000000"/><text fill="#000000" font-family="sans-serif" font-size="14" lengthAdjust="spacing" textLength="184" x="2478" y="27.8467">CustomStringConvertible</text><line style="stroke:#181818;stroke-width:0.5;" x1="2450" x2="2664" y1="39" y2="39"/><line style="stroke:#181818;stroke-width:0.5;" x1="2450" x2="2664" y1="47" y2="47"/></g><!--MD5=[b11b03de10ead43e42c1310a353c45b9]
reverse link View to Redux_SquadViewNew--><g id="link_View_Redux_SquadViewNew"><path codeLine="90" d="M376.897,68.573 C396.528,86.128 421.49,108.45 447.822,131.999 " fill="none" id="View-backto-Redux_SquadViewNew" style="stroke:#181818;stroke-width:1.0;"/><polygon fill="none" points="371.99,73.575,361.748,55.025,381.322,63.139,371.99,73.575" style="stroke:#181818;stroke-width:1.0;"/><text fill="#000000" font-family="sans-serif" font-size="13" lengthAdjust="spacing" textLength="47" x="412" y="98.0669">inherits</text></g><!--MD5=[ea70b98ecd13d81a55f090b5f23c8a36]
reverse link DamagedSquadRepresenting to Redux_SquadViewNew--><g id="link_DamagedSquadRepresenting_Redux_SquadViewNew"><path codeLine="91" d="M615,75.093 C615,91.503 615,111.276 615,131.999 " fill="none" id="DamagedSquadRepresenting-backto-Redux_SquadViewNew" style="stroke:#181818;stroke-width:1.0;"/><polygon fill="none" points="608,75.025,615,55.025,622,75.025,608,75.025" style="stroke:#181818;stroke-width:1.0;"/><text fill="#000000" font-family="sans-serif" font-size="13" lengthAdjust="spacing" textLength="47" x="616" y="98.0669">inherits</text></g><!--MD5=[3bf1f6d86d910d23c0300de48c53b14a]
reverse link ObservableObject to Redux_SquadViewNewViewModel--><g id="link_ObservableObject_Redux_SquadViewNewViewModel"><path codeLine="92" d="M1331.48,73.199 C1351.21,114.896 1381.83,179.642 1403.69,225.876 " fill="none" id="ObservableObject-backto-Redux_SquadViewNewViewModel" style="stroke:#181818;stroke-width:1.0;"/><polygon fill="none" points="1325.11,76.098,1322.89,55.025,1337.77,70.112,1325.11,76.098" style="stroke:#181818;stroke-width:1.0;"/><text fill="#000000" font-family="sans-serif" font-size="13" lengthAdjust="spacing" textLength="47" x="1345" y="98.0669">inherits</text></g><!--MD5=[afb9776b101a145a5fd7c65969f0214e]
reverse link ViewPropertyRepresentable to Redux_SquadViewNewViewModel--><g id="link_ViewPropertyRepresentable_Redux_SquadViewNewViewModel"><path codeLine="93" d="M1527.68,73.199 C1508.13,114.896 1477.77,179.642 1456.08,225.876 " fill="none" id="ViewPropertyRepresentable-backto-Redux_SquadViewNewViewModel" style="stroke:#181818;stroke-width:1.0;"/><polygon fill="none" points="1521.37,70.161,1536.2,55.025,1534.05,76.105,1521.37,70.161" style="stroke:#181818;stroke-width:1.0;"/><text fill="#000000" font-family="sans-serif" font-size="13" lengthAdjust="spacing" textLength="47" x="1523" y="98.0669">inherits</text></g><!--MD5=[43242958c50bca0855ce57f924f3b4ec]
reverse link CustomStringConvertible to Redux_SquadViewNewViewProperties--><g id="link_CustomStringConvertible_Redux_SquadViewNewViewProperties"><path codeLine="94" d="M2528.74,71.393 C2494.34,119.342 2436.75,199.615 2403.6,245.819 " fill="none" id="CustomStringConvertible-backto-Redux_SquadViewNewViewProperties" style="stroke:#181818;stroke-width:1.0;"/><polygon fill="none" points="2523.13,67.195,2540.48,55.025,2534.51,75.356,2523.13,67.195" style="stroke:#181818;stroke-width:1.0;"/><text fill="#000000" font-family="sans-serif" font-size="13" lengthAdjust="spacing" textLength="47" x="2520" y="98.0669">inherits</text></g><!--MD5=[bd72a95ae4351c5638327d4ceeb291fa]
link CustomStringConvertible to SquadDialsState--><g id="link_CustomStringConvertible_SquadDialsState"><path codeLine="95" d="M2565.21,55.025 C2579.29,94.473 2608.34,175.912 2627.49,229.614 " fill="none" id="CustomStringConvertible-SquadDialsState" style="stroke:#181818;stroke-width:1.0;"/><text fill="#000000" font-family="sans-serif" font-size="13" lengthAdjust="spacing" textLength="47" x="2582" y="98.0669">inherits</text></g><!--MD5=[e4fd90a0a719b4b29773231c75eae426]
reverse link View to ShipGridView--><g id="link_View_ShipGridView"><path codeLine="96" d="M303.362,70.95 C300.03,75.569 296.833,80.31 294,85 C269.402,125.715 247.726,174.616 232.162,213.45 " fill="none" id="View-backto-ShipGridView" style="stroke:#181818;stroke-width:1.0;"/><polygon fill="none" points="297.86,66.622,315.627,55.074,308.94,75.181,297.86,66.622" style="stroke:#181818;stroke-width:1.0;"/><text fill="#000000" font-family="sans-serif" font-size="13" lengthAdjust="spacing" textLength="47" x="295" y="98.0669">inherits</text></g><!--MD5=[d9fddf2584dae9d13c870c658223ba8f]
reverse link Redux_SquadViewNew to Redux_SquadViewNew0--><g id="link_Redux_SquadViewNew_Redux_SquadViewNew0"><path codeLine="97" d="M538.287,437.585 C526.25,461.76 513.938,486.491 502.278,509.909 " fill="none" id="Redux_SquadViewNew-backto-Redux_SquadViewNew0" style="stroke:#181818;stroke-width:1.0;stroke-dasharray:7.0,7.0;"/><polygon fill="#181818" points="540.53,433.077,532.9386,439.3516,538.3019,437.5531,540.1004,442.9165,540.53,433.077" style="stroke:#181818;stroke-width:1.0;"/><text fill="#000000" font-family="sans-serif" font-size="13" lengthAdjust="spacing" textLength="21" x="524" y="476.0669">ext</text></g><!--MD5=[29844ccbc10425652b8071626801d37d]
reverse link Redux_SquadViewNew to Redux_SquadViewNew1--><g id="link_Redux_SquadViewNew_Redux_SquadViewNew1"><path codeLine="98" d="M691.854,437.867 C709.586,473.482 727.91,510.287 743.854,542.313 " fill="none" id="Redux_SquadViewNew-backto-Redux_SquadViewNew1" style="stroke:#181818;stroke-width:1.0;stroke-dasharray:7.0,7.0;"/><polygon fill="#181818" points="689.47,433.077,689.8996,442.9165,691.6981,437.5531,697.0614,439.3516,689.47,433.077" style="stroke:#181818;stroke-width:1.0;"/><text fill="#000000" font-family="sans-serif" font-size="13" lengthAdjust="spacing" textLength="21" x="709" y="476.0669">ext</text></g><!--MD5=[1599a9e8876d3ce24d3faf87a6083296]
reverse link Redux_SquadViewNewViewModel to Redux_SquadViewNewViewModel2--><g id="link_Redux_SquadViewNewViewModel_Redux_SquadViewNewViewModel2"><path codeLine="99" d="M1385.56,343.58 C1335.65,411.053 1255.48,519.44 1208.25,583.285 " fill="none" id="Redux_SquadViewNewViewModel-backto-Redux_SquadViewNewViewModel2" style="stroke:#181818;stroke-width:1.0;stroke-dasharray:7.0,7.0;"/><polygon fill="#181818" points="1388.8,339.196,1380.2364,344.0606,1385.8302,343.2185,1386.6724,348.8123,1388.8,339.196" style="stroke:#181818;stroke-width:1.0;"/><text fill="#000000" font-family="sans-serif" font-size="13" lengthAdjust="spacing" textLength="21" x="1294" y="476.0669">ext</text></g><!--MD5=[fb153580a0df7b20a9810196c1d11736]
reverse link Redux_SquadViewNewViewModel to Redux_SquadViewNewViewModel3--><g id="link_Redux_SquadViewNewViewModel_Redux_SquadViewNewViewModel3"><path codeLine="100" d="M1474.14,343.407 C1521.87,408.184 1597.5,510.816 1645.12,575.452 " fill="none" id="Redux_SquadViewNewViewModel-backto-Redux_SquadViewNewViewModel3" style="stroke:#181818;stroke-width:1.0;stroke-dasharray:7.0,7.0;"/><polygon fill="#181818" points="1471.04,339.196,1473.1729,348.8111,1474.012,343.2169,1479.6063,344.0559,1471.04,339.196" style="stroke:#181818;stroke-width:1.0;"/><text fill="#000000" font-family="sans-serif" font-size="13" lengthAdjust="spacing" textLength="21" x="1569" y="476.0669">ext</text></g><!--MD5=[47f98444092a42a83d1792b0016efab5]
reverse link Redux_SquadViewNewViewProperties to Redux_SquadViewNewViewProperties4--><g id="link_Redux_SquadViewNewViewProperties_Redux_SquadViewNewViewProperties4"><path codeLine="101" d="M2358,323.662 C2328.5,382.927 2272.91,494.574 2236.95,566.817 " fill="none" id="Redux_SquadViewNewViewProperties-backto-Redux_SquadViewNewViewProperties4" style="stroke:#181818;stroke-width:1.0;stroke-dasharray:7.0,7.0;"/><polygon fill="#181818" points="2360.26,319.138,2352.6734,325.4184,2358.0353,323.6158,2359.8379,328.9778,2360.26,319.138" style="stroke:#181818;stroke-width:1.0;"/><text fill="#000000" font-family="sans-serif" font-size="13" lengthAdjust="spacing" textLength="21" x="2287" y="476.0669">ext</text></g><!--MD5=[931f6bab3c3de29e2c8cc28e53c30c08]
reverse link Redux_SquadViewNewViewProperties to Redux_SquadViewNewViewProperties5--><g id="link_Redux_SquadViewNewViewProperties_Redux_SquadViewNewViewProperties5"><path codeLine="102" d="M2398.16,324.001 C2432.65,393.277 2502.42,533.405 2535.21,599.268 " fill="none" id="Redux_SquadViewNewViewProperties-backto-Redux_SquadViewNewViewProperties5" style="stroke:#181818;stroke-width:1.0;stroke-dasharray:7.0,7.0;"/><polygon fill="#181818" points="2395.74,319.138,2396.1621,328.9778,2397.9647,323.6158,2403.3266,325.4184,2395.74,319.138" style="stroke:#181818;stroke-width:1.0;"/><text fill="#000000" font-family="sans-serif" font-size="13" lengthAdjust="spacing" textLength="21" x="2472" y="476.0669">ext</text></g><!--MD5=[810c080dc379c8d2bdac0668128b995d]
@startuml
' STYLE START

skinparam shadowing false
' STYLE END


class "Redux_SquadViewNew" as Redux_SquadViewNew << (S, SkyBlue) struct >> { 
  ~viewFactory : ViewFactory
  ~activationOrder : Bool
  -displayResetAllConfirmation : Bool
  ~isFirstPlayer : Bool
  ~victoryPoints : Int32
  -firstPlayerRefresh : Bool
  ~shipPilotsNew : [ShipPilot]
  ~theme : Theme
  ~squad : Squad
  ~squadData : SquadData
  ~viewModel : Redux_SquadViewNewViewModel
  ~init(store:squad:squadData:)
  ~shipPilots : [ShipPilot]
  ~chunkedShips : [[ShipPilot]]
  ~sortedShipPilots : [ShipPilot] 
}
class "Redux_SquadViewNew" as Redux_SquadViewNew0 << (X, Orchid) extension >> { 
  emptySection : some View
  -shipsView : AnyView
  shipsListSection : some View
  shipsGrid : some View
  header : some View
  -hideAllDials()
  -disableSystemPhaseForAllPilots()
  -setSystemPhaseForAllPilots(value:)
  -updateAllPilots(_:)
  content : some View
  body : some View
  -buildShipButton(shipPilot:) 
}
class "Redux_SquadViewNew" as Redux_SquadViewNew1 << (X, Orchid) extension >> { 
  setVictoryPoints(points:)
  setFirstPlayer(_:)
  updateSquad(squadData:)
  updatePilotState(pilotStateData:pilotState:)
  -processEngage()
  -resetAllShips()
  -updateAllDials()
  -updateAllDials(newDialStatus:) 
}
class "Redux_SquadViewNewViewModel" as Redux_SquadViewNewViewModel << (C, DarkSeaGreen) >> { 
  ~store : MyAppStore
  ~viewProperties : Redux_SquadViewNewViewProperties
  ~cancellable : AnyCancellable?
  ~init(store:) 
}
class "Redux_SquadViewNewViewModel" as Redux_SquadViewNewViewModel2 << (X, Orchid) extension >> { 
  loadShips(squad:squadData:)
  updateSquad(squadData:)
  updatePilotState(pilotStateData:pilotState:) 
}
class "Redux_SquadViewNewViewModel" as Redux_SquadViewNewViewModel3 << (X, Orchid) extension >> { 
  configureViewProperties()
  viewPropertiesPublished : Published<Redux_SquadViewNewViewProperties>
  viewPropertiesPublisher : Published<Redux_SquadViewNewViewProperties>.Publisher
  buildViewProperties(state:) 
}
class "Redux_SquadViewNewViewProperties" as Redux_SquadViewNewViewProperties << (S, SkyBlue) struct >> { 
  ~shipPilots : [ShipPilot] 
}
class "Redux_SquadViewNewViewProperties" as Redux_SquadViewNewViewProperties4 << (X, Orchid) extension >> { 
  {static} none : Redux_SquadViewNewViewProperties
  revealedDialCount : Int
  hiddenDialCount : Int
  dialsState : SquadDialsState 
  test: String
}
class "Redux_SquadViewNewViewProperties" as Redux_SquadViewNewViewProperties5 << (X, Orchid) extension >> { 
  description : String 
}
class "SquadDialsState" as SquadDialsState << (E, LightSteelBlue) enum >> { 
  ~revealed
  ~hidden
  ~description : String 
}
class "ShipGridView" as ShipGridView << (S, SkyBlue) struct >> { 
  ~shipPilots : [ShipPilot]
  ~updatePilotState : (PilotStateData, PilotState) -> ()
  ~body : some View
  ~body2 : some View
  ~buildShipButton(shipPilot:) 
}
View <|- - Redux_SquadViewNew : inherits
DamagedSquadRepresenting <|- - Redux_SquadViewNew : inherits
ObservableObject <|- - Redux_SquadViewNewViewModel : inherits
ViewPropertyRepresentable <|- - Redux_SquadViewNewViewModel : inherits
CustomStringConvertible <|- - Redux_SquadViewNewViewProperties : inherits
CustomStringConvertible - - SquadDialsState : inherits
View <|- - ShipGridView : inherits
Redux_SquadViewNew <.. Redux_SquadViewNew0 : ext
Redux_SquadViewNew <.. Redux_SquadViewNew1 : ext
Redux_SquadViewNewViewModel <.. Redux_SquadViewNewViewModel2 : ext
Redux_SquadViewNewViewModel <.. Redux_SquadViewNewViewModel3 : ext
Redux_SquadViewNewViewProperties <.. Redux_SquadViewNewViewProperties4 : ext
Redux_SquadViewNewViewProperties <.. Redux_SquadViewNewViewProperties5 : ext
@enduml

@startuml

skinparam shadowing false


class "Redux_SquadViewNew" as Redux_SquadViewNew << (S, SkyBlue) struct >> { 
  ~viewFactory : ViewFactory
  ~activationOrder : Bool
  -displayResetAllConfirmation : Bool
  ~isFirstPlayer : Bool
  ~victoryPoints : Int32
  -firstPlayerRefresh : Bool
  ~shipPilotsNew : [ShipPilot]
  ~theme : Theme
  ~squad : Squad
  ~squadData : SquadData
  ~viewModel : Redux_SquadViewNewViewModel
  ~init(store:squad:squadData:)
  ~shipPilots : [ShipPilot]
  ~chunkedShips : [[ShipPilot]]
  ~sortedShipPilots : [ShipPilot] 
}
class "Redux_SquadViewNew" as Redux_SquadViewNew0 << (X, Orchid) extension >> { 
  emptySection : some View
  -shipsView : AnyView
  shipsListSection : some View
  shipsGrid : some View
  header : some View
  -hideAllDials()
  -disableSystemPhaseForAllPilots()
  -setSystemPhaseForAllPilots(value:)
  -updateAllPilots(_:)
  content : some View
  body : some View
  -buildShipButton(shipPilot:) 
}
class "Redux_SquadViewNew" as Redux_SquadViewNew1 << (X, Orchid) extension >> { 
  setVictoryPoints(points:)
  setFirstPlayer(_:)
  updateSquad(squadData:)
  updatePilotState(pilotStateData:pilotState:)
  -processEngage()
  -resetAllShips()
  -updateAllDials()
  -updateAllDials(newDialStatus:) 
}
class "Redux_SquadViewNewViewModel" as Redux_SquadViewNewViewModel << (C, DarkSeaGreen) >> { 
  ~store : MyAppStore
  ~viewProperties : Redux_SquadViewNewViewProperties
  ~cancellable : AnyCancellable?
  ~init(store:) 
}
class "Redux_SquadViewNewViewModel" as Redux_SquadViewNewViewModel2 << (X, Orchid) extension >> { 
  loadShips(squad:squadData:)
  updateSquad(squadData:)
  updatePilotState(pilotStateData:pilotState:) 
}
class "Redux_SquadViewNewViewModel" as Redux_SquadViewNewViewModel3 << (X, Orchid) extension >> { 
  configureViewProperties()
  viewPropertiesPublished : Published<Redux_SquadViewNewViewProperties>
  viewPropertiesPublisher : Published<Redux_SquadViewNewViewProperties>.Publisher
  buildViewProperties(state:) 
}
class "Redux_SquadViewNewViewProperties" as Redux_SquadViewNewViewProperties << (S, SkyBlue) struct >> { 
  ~shipPilots : [ShipPilot] 
}
class "Redux_SquadViewNewViewProperties" as Redux_SquadViewNewViewProperties4 << (X, Orchid) extension >> { 
  {static} none : Redux_SquadViewNewViewProperties
  revealedDialCount : Int
  hiddenDialCount : Int
  dialsState : SquadDialsState 
  test: String
}
class "Redux_SquadViewNewViewProperties" as Redux_SquadViewNewViewProperties5 << (X, Orchid) extension >> { 
  description : String 
}
class "SquadDialsState" as SquadDialsState << (E, LightSteelBlue) enum >> { 
  ~revealed
  ~hidden
  ~description : String 
}
class "ShipGridView" as ShipGridView << (S, SkyBlue) struct >> { 
  ~shipPilots : [ShipPilot]
  ~updatePilotState : (PilotStateData, PilotState) -> ()
  ~body : some View
  ~body2 : some View
  ~buildShipButton(shipPilot:) 
}
View <|- - Redux_SquadViewNew : inherits
DamagedSquadRepresenting <|- - Redux_SquadViewNew : inherits
ObservableObject <|- - Redux_SquadViewNewViewModel : inherits
ViewPropertyRepresentable <|- - Redux_SquadViewNewViewModel : inherits
CustomStringConvertible <|- - Redux_SquadViewNewViewProperties : inherits
CustomStringConvertible - - SquadDialsState : inherits
View <|- - ShipGridView : inherits
Redux_SquadViewNew <.. Redux_SquadViewNew0 : ext
Redux_SquadViewNew <.. Redux_SquadViewNew1 : ext
Redux_SquadViewNewViewModel <.. Redux_SquadViewNewViewModel2 : ext
Redux_SquadViewNewViewModel <.. Redux_SquadViewNewViewModel3 : ext
Redux_SquadViewNewViewProperties <.. Redux_SquadViewNewViewProperties4 : ext
Redux_SquadViewNewViewProperties <.. Redux_SquadViewNewViewProperties5 : ext
@enduml

PlantUML version 1.2022.7beta2(Unknown compile time)
(GPL source distribution)
Java Runtime: Java(TM) SE Runtime Environment
JVM: Java HotSpot(TM) 64-Bit Server VM
Default Encoding: UTF-8
Language: en
Country: US
--></g></svg>