<?xml version="1.0" encoding="utf-8"?>
<!-- Generator: Adobe Adobe Illustrator 24.2.0, SVG Export Plug-In . SVG Version: 6.00 Build 0)  -->
<svg version="1.1" xmlns="http://www.w3.org/2000/svg" xmlns:xlink="http://www.w3.org/1999/xlink" x="0px" y="0px" width="105px"
	 height="105px" viewBox="0 0 105 105" style="enable-background:new 0 0 105 105;" xml:space="preserve">
<style type="text/css">
	.st0{display:none;}
	.st1{display:inline;}
	.st2{fill:#00FFFF;}
	.st3{display:inline;fill:#0000FF;}
	.st4{opacity:0.2;fill:#FF0000;}
	.st5{fill:#FFFF00;}
</style>
<g id="Layer_1">
</g>
<g id="Layer_3">
</g>
<g id="Layer_2">
	<g class="st0">
		<path class="st1" d="M-938.2-779.9c0-23.67,0-47.34,0.42-74.12c2.31-17.11,2.82-31.62,15.22-41.14
			c-1.2-16.94-0.15-32.86,2.94-48.61c656.57,0,1313.14,0,1969.97,0c0,666.31,0,1332.61,0,1999.46c-662.67,0-1325.62,0-1988.56,0
			c0-15.83,0-31.97,0-51.37c0.66-6.9,1.92-10.53,1.9-14.16c-0.33-64.88,2.4-129.8-1.9-194.64c0-509.08,0-1018.17,0.33-1530.45
			C-933.87-752.11-934.47-766.03-938.2-779.9z M34.2,1007.64c2.47-0.02,4.96-0.22,7.42-0.04c28.07,2.04,55.82,5.65,83.94-3.27
			c13.48-4.28,29.22-3.47,43.65-2.04c14.63,1.44,27.38-0.09,36.37-8.17c21.87,0.47,41.14-0.78,59.81-6.16
			c22.85-6.58,44.67-16.85,68.93-18.18c2.9-0.16,5.85-1.84,8.51-3.3c20.73-11.4,43.22-21.86,65.51-25.04
			c29.4-4.2,51.01-22.53,76.74-32.71c18.69-7.39,36.63-19.62,54.21-30.48c9.74-6.01,21.08-6.73,30.21-14.94
			c29.52-26.54,61.33-50.44,93.99-73.05c9.47-6.55,18.2-12.74,19.8-25.12c23.69-6.55,33.2-31,54.15-40.47
			c0.5-0.23,0.92-0.89,1.14-1.44c6.85-17.65,23.85-26.86,34.78-41.47c20.97-28.03,47.2-52,66.07-82.08
			c4.69-7.48,5.22-17.28,11.62-22.97c27.11-24.08,34.52-60.23,54.74-88.9c17.5-24.83,28.79-55.21,38.29-85.38
			c7.34-23.31,13.7-47.1,23.91-69.54c5.16-11.34,0.56-26.5,14.77-34.74c-2.29-23.46,2.92-45.27,10.89-67.02
			c4.97-13.57,9.21-28.99,7.81-42.97c-2.17-21.62-0.07-41.67,3.94-62.98c8-42.53,11.69-85.91-2.85-128.36
			c-1.27-3.7-0.77-7.21-0.01-10.93c4.98-24.25-4.52-48.43-0.53-72.77c-1.41-5.56-8.54-7.28-9.52-16.26
			c7.9-23.98-15.78-46.13-11-72.61c0.34-1.87-1.81-4.66-3.48-6.34c-6.29-6.36-7.33-13.96-6.3-22.36c0.95-7.75-0.62-14.81-6.68-20.36
			c-3.44-3.15-3.74-7.44-4.64-11.76c-3.86-18.54-11.72-35.52-22.01-54.27c5.29-18.89-17.37-32.72-13.99-53.65
			c-9.66-7.27-17.47-15.15-15.28-26.6c-3.99-6.27-11.44-5.61-14.86-15c-4.37-17.25-12.45-36.47-26.59-53.26
			c-13.65-16.21-18.07-39.26-37.32-51.65c-1.8-1.16-3.38-3.89-3.62-6.05c-1.35-11.98-9.42-18.27-16.83-22.13
			c-12.93-23.35-27.65-42.02-48.63-56.18c-2.75-18.14-17.25-25.11-32.43-31.03c-3.71-8.97-6.7-18.05-15.5-22.88
			c-17.64-9.69-28.6-27.82-46.76-36.95c-3.06-1.54-6.19-4.88-7.27-8.07c-3.3-9.78-11.17-15.28-19.15-19.35
			c-25.66-13.1-46.12-34.1-72.04-46.62c-18.34-8.86-31.26-26.07-51.4-32.38c-26.46-8.29-50.05-22.98-74.65-35.38
			c-24.17-12.18-47.47-25.24-74.53-32.06c-16.72-4.21-34.04-10.05-50.84-15.25c-22.45-6.95-45.07-14.82-69.12-16.83
			c-31.76-2.65-63.39-4.61-94.93-12.33c-32.83-8.04-67.52-6.71-101.61-6.01c-11.24,0.23-22.27-0.29-27.11,3.69
			c-42.36,4.12-80.54-1.33-120.62,13.93c-12.86-3.42-28.79,2.65-45.15,4.8c-28.75,3.77-56.46,11.74-83.93,20.31
			c-21.87,6.82-42.47,18.24-64.6,23.6c-28.46,6.89-53.07,21.12-78.51,34.11c-20.69,10.56-40.72,22.06-60.42,34.58
			c-17.82,11.32-37.48,19.71-53.74,33.97c-11.01,9.65-23.36,17.76-34.85,26.89c-16.51,13.11-39.26,18.51-49.16,39.93
			c-0.92,1.99-3.62,3.3-5.7,4.59c-19.35,11.97-33.83,29.27-49.22,45.49c-17.35,18.3-33.14,38.21-51.46,55.45
			c-16.02,15.07-27.64,33.64-42.04,49.88c-12.69,14.33-20.94,33.8-31.66,50.8c-24.61,39.06-51.71,76.86-67.7,120.94
			c-8.94,24.64-19.33,49.12-27.04,73.79c-6.08,19.44-15.28,37.98-19.7,58.56c-5.28,24.54-14.38,49.63-17.94,73.9
			c-5.3,36.16-16.86,71.11-16.33,109.08c0.49,35.91-1.98,72.38-3.24,108.61c-0.54,15.71,1.7,29.22,9.77,42.75
			c-8.14,26.68,1.77,53.74-1.58,82.58c10.46,5.4,9.71,16.3,9.77,26.98c0.03,5.55-1.01,11.85,3.27,15.99
			c8.12,7.86,8.09,17.6,8.09,27.59c0,6.2-0.45,12.7,4.28,17.6c5.17,5.35,6.55,11.67,6.23,18.77c-0.22,5.02-0.08,10.33,3.93,13.88
			c6.81,6.03,7.79,13.74,7.48,22.01c-0.26,7.11,3.43,12.7,5.94,19c5.69,14.28,15.82,26.48,19.18,41.68
			c5.38,24.3,16.67,46.29,29.57,66.87c8.11,12.94,15.34,26.3,23.09,39.4c13.06,22.07,25.43,44.65,39.84,65.81
			c13.38,19.65,26.94,39.54,45.43,55.06c6.8,5.71,6.89,14.2,10.5,22.54c24.4,7.22,32.76,32.56,48.93,49.35
			c13.77,14.3,27.97,28.81,42.77,41.8c18.18,15.95,38.09,30.09,55.47,47.1c3.53,3.46,6.82,6.8,11.04,9.52
			c39.82,25.69,79.37,51.64,121.01,74.57c18.25,10.05,36,22.67,55.31,29.4c35.27,12.3,69.84,26.92,106.25,36.03
			c18.88,4.73,37.76,10.49,56.01,16.49c18.87,6.2,41.74,0.74,55.28,18.83c23.43-6.35,43.18,2.36,63.72,7.84
			c5.49-1.86,10.99-3.65,17.61-3.05C-17.03,1004.96,6.53,1011.64,34.2,1007.64z"/>
		<path class="st2" d="M-816.66,357.54c0.85-9.17-5.78-13.62-7.77-20.11c-5.49-17.86-19.17-33.47-13.86-54.28
			c1.02-3.99-0.79-8.57-4.48-11.67c-5.39-4.54-6.18-10.62-4.86-16.98c2.83-13.74,0.21-25.82-11.41-36.06
			c4.88-24.3,0.86-48.91-3.04-72.46c-11.68-70.44,0.58-140.31,1.83-210.34c0.41-23.23,11.51-46.44,16.8-69.92
			c4.13-18.34,9.25-36.47,10.93-55.25c0.66-7.33,8.49-10.68,8.57-18.13c0.27-27.28,18.83-49.01,22.62-75.91
			c2.13-15.14,14.59-29.14,20.84-44.59c7.63-18.89,17.5-37.22,27.41-54.67c11.3-19.88,21.04-41.83,36.71-58.6
			c13.15-14.07,18.66-32.32,31.84-46.35c20.62-21.95,35.87-49.41,58.06-69.32c22.35-20.06,38.73-45.33,61.6-64.13
			c12.06-9.91,25.26-18.63,37.17-28.95c26.75-23.17,54.32-46.09,85.1-62.85c35.72-19.44,68.55-43.74,107.13-58.92
			c26.04-10.24,51.88-22.06,77.81-33.21c4.46-1.92,8.31-5.24,13.19-8.41c17.04,2.96,31.46-5.52,46.17-12.61
			c38.52-11.78,78.99-13.89,123.23-24.4c18.28,3.07,40.16-8.29,63.42-9.94c24.57-1.74,49.06-1.4,73.6-0.63
			c20.92,0.66,41.84,1.49,62.76,1.77c17.34,0.23,34.47,1.64,50.91,7.43c17.23,6.07,35.32,2.18,52.98,5.1
			c15.87,2.63,31.08,6.65,46.4,11.08c10.58,3.05,21.01,7.61,32.56,5.74c2.36-0.38,5.19-0.47,7.28,0.48
			c33.49,15.24,71.23,19,103.28,37.5c11.05,6.38,26.52,7.57,30.74,21.83c33.27,15.05,69.45,22.04,94.05,50.61
			c21.12,2.17,38.24,12.11,51.01,28.61c9.96,12.86,25.06,19.67,35.21,32.29c2.31,2.87,9.21,2.02,10.72,2.29
			c93.17,70.71,160.15,160.58,222.71,258.78c0,0.94,0,5.85,0,11.49c25.94,29.41,36.89,67.12,54.58,101.42
			c0.57,6.78,1.14,13.55,1.78,21.22c10.91,9.75,13.09,25.55,22.26,35.48c3.05,7.61-2.03,13.47-0.38,19.35
			c15.79,32.86,16.79,70.07,32.01,104.26c-2.64,19.9-7.23,41.37,5.77,61.46c1.84,2.84,1.9,7.2,1.83,10.84
			c-1.05,61.13-2.32,122.26-3.37,183.39c-0.3,17.25-0.05,34.5-0.05,48.47c-3.82,8.31-10.07,10.6-10.44,17.01
			c-1.42,24.61-12.36,47.17-15.4,71.5c-2.41,19.32-8.27,37.92-16.42,55.55c-7.26,15.7-11.29,32.42-17.08,48.57
			c-9.94,27.77-19.06,56.08-33.05,81.93c-7.88,14.56-19.27,27.22-26.92,42.53c-3.83,7.66-6.5,15.84-10.11,23.52
			c-6.47,13.75-22.11,19.08-27.4,33.79c-6.8,18.92-19.33,34.17-34.6,47.24c-9.08,7.77-9.51,21.02-18.61,29.32
			c-12.04,11-21.57,24.33-30.61,38c-3.83,5.79-11.83,6.33-17.34,9.8c-14.53,24.35-37.29,40.35-57.41,58.73
			c-17.39,15.88-35.82,30.91-55.24,44.18c-27.57,18.84-51.74,42.17-83,56.55c-12.61,5.8-31.73,6.21-36.06,23.65
			c-10.82,3.68-22.45,2.45-25.36,15.41c-11.17-0.58-20.44,1.84-25.47,10.36c-11.96,3.49-25.05-1.9-33.26,10.52
			c-1.53,2.32-8.13,1.61-12.41,1.72c-20.38,0.49-36.48,11.44-55.38,21.77c-25.19-1.78-48.38,11.45-75.19,22.31
			c-12.63-0.85-28.23-2.06-40.11,9.12c-37.54-2.37-72.96,7.47-109.02,9.09c-23.22,1.05-46.56-0.98-69.86-1.43
			c-28.41-0.54-56.88-2.15-85.22-0.91c-26.1,1.15-49.34-11.42-74.42-12.8c-25.16-1.38-46.54-15.19-70.89-18.43
			c-31.11-4.13-58.25-20.19-87.59-29.69c-25.63-8.3-51.97-15.16-75.7-28.55c-17.46-9.85-35.2-19.4-51.7-30.72
			c-10.48-7.19-24.54-7.24-33.05-16.06c-19.4-20.08-46.38-29.72-65.66-49.79c-5.47-5.7-11.65-10.86-19.23-14.35
			c-9.96-4.58-18.07-10.72-24.66-20.9c-6.25-9.64-17.06-17.62-28.97-19.04c-3.94-5.24-2.1-11.11-4.04-12.88
			c-2.56-3.05-3.16-4.38-4.17-4.88c-20.48-10.1-32.66-28.91-46.02-45.94c-4.4-5.6-10.19-8.39-14.53-13.42
			c-19.31-22.4-37.67-45.8-55.53-69.1c-9.14-11.93-22.24-24.24-25.26-41.13c-1.24-6.92-9.2-8.05-11.01-12.07
			c-7.44-36.3-38.76-58.98-45.2-94.45c-3.67-3.29-7.76-6.97-10.76-9.66c-3.53-22.08-12.77-40.25-23.19-60.38
			C-815.81,371.49-816.21,365.3-816.66,357.54z M575.94-610.93c-21.98-24.77-52.57-37.94-78.9-56.64
			c-21.64-15.37-46.71-26.39-67.37-43.96c-4.27-3.63-9.22-5.83-14.76-7.4c-19.44-5.53-39.57-9.75-57.88-17.96
			c-41.12-18.43-85.32-26.64-127.74-40.67c-16-5.29-34.31-5.07-50.59-10.55c-16.99-5.72-33.86-0.5-50.96-3
			c-34.5-5.06-69.63-7.35-104.62-3.93c-17.84,1.75-37.52-8.26-52.35,9.38c-22.51-8.63-43.58-1.64-64.56,1.58
			c-23.96,3.68-47.7,8.29-71.26,15.11c-18.91,5.48-36.94,16.78-58.01,14.45c-1.93-0.21-4.03,2.78-6.29,3.63
			c-25.28,9.54-49.23,22.21-73.94,33.03c-14.77,6.47-33.59,9.68-42.32,25.87c-36.81,12.03-66.76,34.24-98.95,58.39
			c-1.87,0.3-6.67,1.08-11.47,1.85c-43.03,39.6-86.06,78.71-127.56,119.7c-3.16,7.82-9.31,13.83-15.37,20.12
			c-19.99,20.79-35.39,45.12-51.39,68.9c-9.52,14.16-16.22,30.36-26.61,43.76c-14.32,18.47-27.07,37.42-33.15,60.12
			c-1.79,6.69-4.84,12.28-7.98,18.32c-11.03,21.25-34.28,37.08-29.83,65.44c0.26,1.63-0.71,3.69-1.63,5.24
			c-16.29,27.74-22.21,59.28-31.31,89.45c-10.3,34.17-8.99,70.63-16.34,105.59c-5.85,27.83-7.56,56.42-7.88,84.58
			c-0.24,20.81-3.96,42.18,0.33,62.58c4.59,21.84,3.18,44.11,8.09,65.97c2.81,12.47,1.42,25.73,9.56,33.65
			c4.36,64.57,31.5,120.72,45.71,181.46c1.79,2.17,5.88,5.05,7.02,8.83c8.42,27.86,27.34,50.82,36.44,78.06
			c4.63,13.86,17.31,21.01,22.2,33.22c7.26,18.14,15.51,34.62,28.44,50.02c14.57,17.34,28.42,35.54,42.38,53.5
			c11.53,14.83,30.82,23.51,33.35,37.62c37.64,39.48,74.91,71,117.97,107.89c15.52,6.18,36.65,19,55.3,35.69
			c18.81,16.83,48.69,15.42,62.9,39.45c4.56,0.78,9.6,0.24,12.81,2.4c20.68,13.97,44.1,21.27,67.47,28.63
			c41.58,13.09,82.88,26.74,125.52,36.71c25.22,5.9,51.44,5.81,76.23,15.83c14.25,5.76,32.05,2.26,48.14,3.96
			c26.97,2.85,53.91,0.09,80.85,0.58c17.68,0.32,35.75,5.22,52-6.61c2.17-1.58,6.22-1.7,9.04-1.03c14.12,3.39,28.25-1.57,41.59,1.08
			c17.31-13.43,40.11-2.41,55.09-15.69c6.4,1.15,11.23,2.02,16.63,2.99c22.62-16.41,54.9-8.65,75.5-30.08
			c22.64-2.92,42.12-12.66,60.88-25.47c15.93,2.44,28.52-3.95,41.81-13.65c15.02-10.96,33.7-16.2,49.97-26.27
			c18.06-11.18,33.32-26.47,53.33-35.06c6.44-2.77,15.65-5.22,19.14-13.49c5.2-12.32,15.48-16.71,28.75-17.82
			c7.84-20.55,35.45-22.76,40.97-46.13c10.42-2.2,17.58-8.94,23.98-16.68c4.69-5.68,8.34-12.71,14.07-16.97
			c31.16-23.17,52.04-55.5,76.72-84.46c5.03-5.9,4.7-13.64,9.16-19.95c13.14-18.6,29.71-34.58,40.34-55.23
			c3.31-6.43,3.69-13.89,9.28-19.74c17.81-18.64,22.34-44.26,33.41-66.47c7.9-15.85,8.5-34.76,21.14-48.42
			c3.09-3.34,4.03-7.73,3.68-12.17c-0.89-11.25,3.37-20.47,10.79-27.76c0.68-12.6-0.38-25.98,5.66-35.33
			c11.59-17.93,13.28-38.57,16.45-57.67c4.56-27.44,20.08-53.6,12.77-83.31c1.94-2.34,4.26-5.13,6.55-7.88c0-50.29,0-100.2,0-151.38
			c-7.91-5.72-8.44-14.42-5.83-24.18c1.8-6.73,0.49-13.69-0.97-20.29c-5.29-23.82-8.32-47.98-12.08-72.05
			c-2.68-17.15-7.12-34.28-13.14-50.54c-2.51-6.76-6.69-12.96-7.18-20.52c-0.79-12.09-4.64-22.92-12.75-30.57
			c-0.8-6.28,4.13-10.71,0.61-15.62c-14.71-22.35-24.29-46.91-31.65-74.3c-4.52-3.64-9.17-9.1-12.39-16.09
			c-8.92-19.34-18.48-38.27-30.14-56.28c-12.93-19.96-27.67-38.62-39.91-59.26c-9.11-15.37-22.54-29.29-33.43-44.58
			c-13.16-18.49-29.81-34.84-46.64-50.26c-16.89-15.47-34.45-30.07-50.24-46.82C600.01-595.62,591.89-606.72,575.94-610.93z"/>
		<path class="st3" d="M-754.14,228.03c-9.08-17.08-6.96-35.32-11.56-51.28c-12.35-42.83-4.4-85.77-5.9-128.53
			c-1.08-30.87,2.09-61.74,5.91-92.64c3.9-31.53,9.66-62.92,16.04-93.67c3.58-17.24,3.58-38.05,17.49-53.29
			c6.59-7.22,4.2-17.76,5.04-26.79c11.93-20.22,19.45-42.06,27.93-63.19c29.54-63.73,68.17-121.86,112.8-180.71
			c15.2-8.4,25.6-27.67,40-42.62c14.71-15.27,30.94-28.9,45.35-44.45c20.01-21.6,46.61-36.12,65.54-59
			c6.54-7.91,16.8-6.69,24.47-12.33c21.89-16.09,44.86-30.7,67.08-46.35c5.23-3.68,10.57-6.13,16.63-7.73
			c25.34-6.67,46.24-22.98,70.06-32.73c17.2-7.03,32.77-19.54,52.9-18.39c2.42,0.14,5.12,0.01,7.3-0.92
			c41.49-17.8,85.4-26.12,129.66-32.71c35.76-5.32,71.93-6.64,107.99-7.27c35.74-0.63,71.9-1.99,107.15,2.6
			c31.8,4.14,63.83,9.94,94.95,19.57c11.79,3.65,24.63,8.57,38.05,4.05c13.17,10.61,27.5,17.15,44.96,14.14
			c11.31,10.33,25.75,15.5,39.5,19.27c19.77,5.43,36.42,17.95,56.52,21.96c4.8,0.96,8.09,5.42,11.93,8.56
			c13.62,11.15,26.27,23.82,44.26,28.31c19.05,4.75,31.97,19,46.02,31.22c9.33,8.12,18.35,16.23,30.32,17.19
			c5.7,3.72,4.2,9.75,7.84,15.02c19.72,7.09,33.78,23.08,49.64,37.89c22.06,20.6,41.44,43.44,62.21,65.07
			c18.06,18.81,37.89,37.73,48.6,60.8c11.11,23.94,29.01,41.98,42.05,63.81c5.35,8.97,12.02,17.91,14.38,27.75
			c5.07,21.14,20.71,36.82,26.37,57.82c6.6,24.49,18.14,47.9,29.06,70.41c9.28,19.12,2.45,42.57,19.35,58.3
			c1.71,1.59,1.26,5.97,1.1,9.02c-0.79,14.68,2.82,28.14,11.21,40.26c-6.41,25.5,8.85,50.24-0.01,75.61
			c18.04,18.92,7.33,41.53,8.04,62.3c1.21,35.76-1.16,71.63-1.21,107.45c-0.02,12.34-6.93,24.16-3.53,36.16
			c-20.31,95.13-51.94,186.46-86.09,268.68c-29.46,43.79-55.55,80.92-78.99,121.28c-12.33,5.47-19.13,14.02-38.19,49.35
			c-24.83,1.42-22.26,37.6-45.62,37.95c-31.42,35.43-68.45,60.58-100.56,91.05c-3.91,3.77-9.14,0.84-13.87,2.35
			c-33.77,29.28-75.3,45.98-115.88,69.95c-31.28,6.87-63.72,19.72-97.68,38.54c-18.75-6.55-37.23,11.03-60.78,11.1
			c-6.77,10.1-20.31,7.75-31.5,8.65c-21.09,1.69-41.85,9.47-63.64,3.58c-8.51-2.3-17.39,0.61-20.47,8
			c-97.13,5.49-191.19,2.17-282.13-28.17c-89.12-29.73-179.26-57.8-251.77-122.18c-6.62-3.28-13.06-7.03-19.9-9.75
			c-18.64-7.41-29.34-24.73-45.06-35.6c-17.02-11.77-24.58-34.91-47.84-38.59c-6.36-21.49-30.4-28.88-36.32-49.3
			c-5.67-3.12-10.5-5.77-14.44-7.94c-12.69-21.96-27.88-40.36-47.27-59.73c2.33-12.69-17.83-20.68-14.72-36.98
			c-16.56-12.47-22.3-31.1-32.53-46.74c-8.01-12.24-11.24-26.26-18.16-38.93c-10.65-19.52-18.18-40.88-25.77-61.92
			c-7.64-21.18-15.79-42.53-19.91-64.52C-744.05,275.14-754.62,253.48-754.14,228.03z M182.87-34.84
			c-4.89-12.54-12.55-24.22-11.52-36.84c-11.75-16.26-17.01-33.47-21.15-50.99c-1.4-5.9,0.61-12.93-3.52-17.95
			c-11.04-13.43-3.01-33.49-16.39-45.92c-2.05-34.74-12.65-67.85-19.58-101.65c-1.74-8.49-0.79-16.91-2.54-25.52
			c-3.86-19.05-13.31-37.05-10.49-57.63c1.95-14.22,0.25-28.58-9.94-40.7c4.29-15.86,4.11-31-7.56-44.4
			c7.07-21.24-0.91-40.14-9.42-59.64c-4.65,12.14-13.13,21.69-15.29,34.94c-3.88,23.86,2.49,47.99-8.44,72.28
			c-9.21,20.48-6.91,45.43-14.38,67.78C17.33-295.2,8.75-247.4-7.24-201.53c-9.66,27.71-17.61,56.18-26.48,84.27
			c-4.46,14.13-11.19,27.29-14.89,41.74c-5.59,21.83-15.5,41.9-31.14,58.61c-5.75,6.14-9.02,13.23-9.22,21.64
			c-0.1,4.38-0.36,8.46-3.18,12.28c-11.57,15.69-19.09,34.12-32.3,48.69c-12.88,14.2-20.14,32.28-36.6,44.69
			c-9.96,7.51-22.83,17.41-25.29,34.53c6.07,17.08,19.6,29.46,36,41.08c0.19,12.54,9.1,20.03,18.91,27.05
			c3.45,2.47,7.26,5.33,9.17,8.94c9.03,17.02,24,30.26,37.34,41.79c27.33,23.63,45.84,55.14,74.94,77.12
			c10.92,8.25,23.5,18.98,30.02,31.75c7.6,14.89,19.06,19.39,31.92,22.24c44.56-36.35,81.46-78.56,123.57-115.53
			c41.84-36.72,81.88-76.22,120.45-119.05c-11.86-29.04-36.06-48.57-55.54-75.46c-7.01-12.94-12.3-30.62-26.47-44.45
			c0.06-10.17-3.16-19.87-13.5-26.54c4.59-13.56-5.21-20.47-12.92-28.27C186.36-20.58,186.68-26.94,182.87-34.84z M278.11,396.09
			c28.76-21.14,46.69-54.49,79.87-70.57c5.19-11.67,12.83-20.88,23.8-27.37c9.33-5.52,13.02-14.78,13.61-25.05
			c1.25-21.58,2.07-43.2,2.83-64.81c0.2-5.67-0.71-11.25-8.74-14.85c-34.13,8.8-52.19,40.61-76.46,62.88
			c-25.35,23.25-52.38,45.58-72.57,72.95c-5.53,2.37-11.02,1.43-15.51,5.64c-2.99,3.59,18.52-8.75,15.57-4.42
			c-6.73,9.9-42.6,30.48-50.01,38.96c-25.66,29.36-53.64,56.26-83.72,81.11c-9.26,7.65-17.2,16.93-19.17,30.45
			c-1.93,13.26-5.36,26.6-7.18,39.72c-2.1,15.05-2.01,31.98,11.56,44.62c27.9,0.04,31.39-34.59,55.76-37.2
			c3.06-10.87,9.49-17.1,16.58-23.44c27.3-24.4,55.17-48.25,78.44-76.85c4.17-5.12,9.48-11.06,15.33-12.66
			C267.95,412.51,271.6,405.18,278.11,396.09z M1.82,556.77c0.02-18.54-1.5-37.03,2.7-55.52c1.87-8.24,1.13-17.6-3.44-25.41
			c-13.05-22.3-28.31-42.77-50.31-57.64c-3.09-4.53-0.31-11.14-6-16.75c-9.18-5.08-19.91-11-30.79-17.01
			c-0.48-4.95-0.95-9.79-1.41-14.46c-9.2-7.1-16.84-15.38-26.8-19.87c-27.53-29.16-48.9-64.09-83.99-89.65
			c-2.96-16.61-20.56-22.78-33.59-33.32c-10.09-24.7-37.67-48.17-56.61-46.33c-5.46,27.98-0.41,57.02-5.13,84.11
			c14.92,16.58,25.08,34.21,40.7,48.77c13.56,12.64,28.57,25.55,40.58,41.24c11.9,15.53,28.3,29.7,40.17,44.91
			c13.43,17.21,32.37,28.27,44.49,47.49c8.1,12.85,23.69,24.45,34.97,37.03c14.64,16.35,34.57,28.62,41.95,50.13
			c12.24,8.22,24.34,14.76,31.08,28.61C-14.39,573.8-5.84,571.93,1.82,556.77z M369.31,120.66c6.25,8.31,17.9,7.26,23.59,15.21
			c6.15-3.73,6.6-9.01,7.43-13.75c4.34-24.63,1.75-49.49,1.89-74.25c0.04-6.78-5.32-10.75-9.75-15.16
			c-14.4-14.33-27.59-29.62-40.13-45.72c-8.88-11.4-20.15-23.31-39.25-22.13c0,31.53,0,61.65,0,92.11
			C328.7,79.42,349.26,98.03,369.31,120.66z M-286.56,42.21c-0.77,16.65,0.14,33.27-1.87,50c-1.28,10.64,0.92,22.87,16.37,23.19
			c6.36-4.02,7.4-11.62,14.24-14.9c19.71-9.45,30.46-29.56,47.78-42.07c2.83-2.05,4.82-5.59,6.55-8.8
			c15.85-29.47,11.83-61,9.09-92.34c-0.26-2.95-2.14-5.84-8.49-7.52c-6.51,6.92-17.87,9.02-26.17,18.08
			c-12.28,13.41-25.43,26.51-40.09,37.11C-281.56,13.93-287.88,23.81-286.56,42.21z"/>
		<path class="st4" d="M52.49,292.94C10.38,268.52-80.06,150.53-83.5,132.5C-39.61,89.55-6.04,30.25,10.54-20.87
			C42.08-118.1,38.28-227.67,60.5-227.5c28.33,0,32.14,278.46,126,360C191.83,153.89,57.56,286.89,52.49,292.94z"/>
	</g>
	<g>
		<circle cx="52.5" cy="52.5" r="50"/>
		<g>
			<g>
				<path class="st5" d="M61.86,49c-0.38-1.15-9.45-33.43-9.46-33.44c0,0-9.41,32.21-9.83,33.43c-1.28,3.76-6.34,7.4-6.34,7.4
					l16.17,15.73l15.31-15.75C67.72,56.38,63.04,52.54,61.86,49z M52.41,65.45l-7.94-9.07c0,0,2.34-3.62,3.63-7.38
					c0.42-1.22,4.31-15.87,4.31-15.87S56.56,47.86,56.94,49c1.18,3.54,3.55,7.4,3.55,7.4L52.41,65.45z"/>
			</g>
		</g>
		<g>
			<polyline class="st5" points="30.69,47.27 30.57,55.24 36.18,51.04 36.18,43.33 			"/>
			<polyline class="st5" points="30.57,66.05 30.57,58.08 47.87,75.66 47.87,83.6 			"/>
		</g>
		<g>
			<polyline class="st5" points="73.99,47.27 74.1,55.24 68.5,51.04 68.5,43.33 			"/>
			<polyline class="st5" points="74.1,66.05 74.1,58.08 56.81,75.66 56.81,83.6 			"/>
		</g>
	</g>
</g>
</svg>
