<svg id="Layer_2_copy" data-name="Layer 2 copy" xmlns="http://www.w3.org/2000/svg" viewBox="0 0 708 1100"><defs><style>.cls-1{fill:#ff1b00;}</style></defs><path class="cls-1" d="M505.14,540.81c-6.08-18.21-150-530.5-150.07-530.62s-149.4,511.18-156,530.51C178.68,600.4,98.49,658.19,98.49,658.19L355.07,907.83l243-250S523.86,596.91,505.14,540.81Zm-150.07,261-126-144s37.16-57.41,57.55-117.11c6.6-19.33,68.45-251.89,68.45-251.89s65.92,233.78,72,252c18.73,56.1,56.36,117.38,56.36,117.38Z"/><polyline class="cls-1" points="10.39 513.31 8.57 639.81 97.51 573.1 97.51 450.81"/><polyline class="cls-1" points="8.57 811.3 8.57 684.81 283.07 963.81 283.07 1089.81"/><polyline class="cls-1" points="697.61 513.31 699.43 639.81 610.49 573.1 610.49 450.81"/><polyline class="cls-1" points="699.43 811.3 699.43 684.81 424.93 963.81 424.93 1089.81"/></svg>