<svg id="Layer_2" data-name="Layer 2" xmlns="http://www.w3.org/2000/svg" viewBox="0 0 2000 2000"><defs><style>.cls-1{fill:#ff0;}</style></defs><path class="cls-1" d="M1158.07,972c-6.08-18.21-150-530.5-150.07-530.62S858.6,952.56,852,971.89c-20.39,59.71-100.58,117.49-100.58,117.49L1008,1339l243-250S1176.79,1028.1,1158.07,972ZM1008,1233,882,1089s37.16-57.4,57.55-117.11C946.15,952.56,1008,720,1008,720s65.92,233.79,72,252c18.73,56.1,56.36,117.38,56.36,117.38Z"/><polyline class="cls-1" points="663.32 944.51 661.5 1071 750.44 1004.29 750.44 882"/><polyline class="cls-1" points="661.5 1242.49 661.5 1116 936 1395 936 1521"/><polyline class="cls-1" points="1350.54 944.51 1352.36 1071 1263.42 1004.29 1263.42 882"/><polyline class="cls-1" points="1352.36 1242.49 1352.36 1116 1077.86 1395 1077.86 1521"/></svg>