<svg id="Layer_1" data-name="Layer 1" xmlns="http://www.w3.org/2000/svg" viewBox="0 0 3300 2200"><defs><style>.cls-1{fill:#fff;}.cls-11,.cls-2{fill:none;}.cls-2{stroke:#000;stroke-width:0.5px;}.cls-3,.cls-6,.cls-7{isolation:isolate;}.cls-3,.cls-6{font-size:12px;}.cls-3{font-family:Arial-BoldMT, Arial;font-weight:700;}.cls-4{letter-spacing:-0.02em;}.cls-5{letter-spacing:-0.06em;}.cls-6{font-family:ArialMT, Arial;}.cls-7{fill:#00aeef;opacity:0.4;}.cls-8{letter-spacing:-0.11em;}.cls-9{letter-spacing:-0.07em;}.cls-10{fill:#27aae1;}.cls-11{stroke:#27aae1;stroke-width:0.58px;}</style></defs><g id="Notes"><rect id="artboard" class="cls-1" width="3300" height="2200"/><line class="cls-2" x1="263" y1="292" x2="3036" y2="292"/><text class="cls-3" transform="translate(263 322)"><tspan class="cls-4">W</tspan><tspan x="11.11" y="0">eight/Scale </tspan><tspan class="cls-5" x="77.8" y="0">V</tspan><tspan x="85.14" y="0">ariations</tspan></text><text class="cls-6" transform="translate(536.04 322)">Ultralight</text><text class="cls-6" transform="translate(844.75 322)">Thin</text><text class="cls-6" transform="translate(1140.12 322)">Light</text><text class="cls-6" transform="translate(1428.83 322)">Regular</text><text class="cls-6" transform="translate(1725.22 322)">Medium</text><text class="cls-6" transform="translate(2018.26 322)">Semibold</text><text class="cls-6" transform="translate(2327.97 322)">Bold</text><text class="cls-6" transform="translate(2619.68 322)">Heavy</text><text class="cls-6" transform="translate(2918.73 322)">Black</text><line class="cls-2" x1="263" y1="1903" x2="3036" y2="1903"/><path d="M272.25,1933.83a7.88,7.88,0,1,0-7.88-7.88A7.95,7.95,0,0,0,272.25,1933.83Zm0-1.48a6.4,6.4,0,1,1,6.39-6.4A6.36,6.36,0,0,1,272.25,1932.35Zm0-2.78c.47,0,.74-.31.74-.83v-2.06h2.23c.5,0,.84-.25.84-.72s-.33-.74-.84-.74H273V1923c0-.52-.27-.84-.74-.84s-.72.34-.72.84v2.23H269.3c-.52,0-.85.26-.85.74s.35.72.85.72h2.21v2.06C271.51,1929.24,271.76,1929.57,272.23,1929.57Z"/><path d="M293.22,1935.91a10,10,0,1,0-10-10A10,10,0,0,0,293.22,1935.91Zm0-1.66a8.3,8.3,0,1,1,8.3-8.3A8.27,8.27,0,0,1,293.22,1934.25Zm0-3.66a.82.82,0,0,0,.83-.93v-2.89h3.05c.55,0,.93-.28.93-.8s-.36-.83-.93-.83H294v-3.07a.83.83,0,1,0-1.65,0v3.07h-3c-.57,0-.94.3-.94.83s.39.8.94.8h3v2.89A.82.82,0,0,0,293.2,1930.59Z"/><path d="M319.89,1938.67A12.72,12.72,0,1,0,307.18,1926,12.8,12.8,0,0,0,319.89,1938.67Zm0-1.81a10.9,10.9,0,1,1,10.9-10.9A10.87,10.87,0,0,1,319.89,1936.86Zm0-4.92a.9.9,0,0,0,.91-1v-4.07H325a.91.91,0,1,0,0-1.81h-4.24v-4.25a.89.89,0,0,0-.91-1,.88.88,0,0,0-.89,1v4.25h-4.23a.91.91,0,1,0,0,1.81H319v4.07A.88.88,0,0,0,319.88,1931.94Z"/><text class="cls-3" transform="translate(263 1953)">Design <tspan class="cls-5" x="43.34" y="0">V</tspan><tspan x="50.68" y="0">ariations</tspan></text><text class="cls-6" transform="translate(263 1971)">Symbols are supported in up to nine weights and three scales.</text><text class="cls-6" transform="translate(263 1989)">For optimal layout with text and other symbols, vertically align</text><text class="cls-6" transform="translate(263 2007)">symbols with the adjacent text.</text><rect class="cls-7" x="776" y="1919" width="3" height="14"/><path d="M789.53,1933h1.84l-5.19-14.09h-1.74l-5.2,14.09h1.85l1.42-4h5.6Zm-4.25-12h.06l2.25,6.42H783Z"/><rect class="cls-7" x="791.62" y="1919" width="3" height="14"/><text class="cls-3" transform="translate(776 1953)">Margins</text><text class="cls-6" transform="translate(776 1971)">Leading and trailing margins on the left and right side of each symbol</text><text class="cls-6" transform="translate(776 1989)">can be adjusted by modifying the width of the blue rectangles.</text><text class="cls-6" transform="translate(776 2007)">Modifications are automatically applied proportionally to all</text><text class="cls-6" transform="translate(776 2025)">scales and weights.</text><path d="M1291.83,1936.12l1.55,1.54a1.68,1.68,0,0,0,2.68-.2l10.22-11.12a1.54,1.54,0,0,0,1.28.19l1-.22.69.69,0,.52a1.64,1.64,0,0,0,.6,1.45l.81.81a1.1,1.1,0,0,0,1.64.06l3.25-3.26a1.09,1.09,0,0,0,0-1.64l-.82-.82a1.55,1.55,0,0,0-1.44-.59l-.53.06-.65-.67.28-1.14a1.55,1.55,0,0,0-.63-1.64l-2.41-2.39c-3.54-3.53-8.07-3.42-11.19-.29a1.16,1.16,0,0,0-.19,1.45,1.17,1.17,0,0,0,1.35.43,5.33,5.33,0,0,1,4.52.74l-.63,1.58a1.72,1.72,0,0,0,0,1.51L1292,1933.44A1.68,1.68,0,0,0,1291.83,1936.12Zm7.84-18.27a6.17,6.17,0,0,1,8.38.74l2.63,2.6a.69.69,0,0,1,.2.72l-.38,1.56,1.58,1.57,1-.09a.56.56,0,0,1,.6.22l.62.62-2.75,2.75-.63-.62a.57.57,0,0,1-.21-.6l.09-1-1.56-1.56-1.63.31a.56.56,0,0,1-.66-.19l-2.18-2.17a.53.53,0,0,1-.12-.7l.94-2.27a5.8,5.8,0,0,0-5.75-1.73c-.09,0-.16,0-.18,0S1299.59,1917.92,1299.67,1917.85Zm-6.57,17.56c-.49-.5-.31-.8,0-1.1l11-10.12,1.23,1.23-10.16,10.93a.67.67,0,0,1-1.08,0Z"/><text class="cls-3" transform="translate(1289 1953)">Exporting</text><text class="cls-6" transform="translate(1289 1971)">Symbols should be outlined when exporting to ensure the</text><text class="cls-6" transform="translate(1289 1989)">design is preserved when submitting to Xcode.</text><text id="template-version" class="cls-6" transform="translate(2958.85 1933)"><tspan class="cls-8">T</tspan><tspan x="6" y="0">emplate </tspan><tspan class="cls-9" x="52.03" y="0">v</tspan><tspan x="57.13" y="0">.1.0</tspan></text><text class="cls-6" transform="translate(2914.6 1951)">Generated from repeat</text><text class="cls-6" transform="translate(2921.92 1969)"><tspan class="cls-5">T</tspan><tspan x="6.67" y="0">ypeset at 100 points</tspan></text><text class="cls-6" transform="translate(263 726)">Small</text><text class="cls-6" transform="translate(263 1156)">Medium</text><text class="cls-6" transform="translate(263 1586)">Large</text></g><g id="Guides"><g id="H-reference"><path class="cls-10" d="M393.93,696h2.74l-27.1-70.46h-2.49L340,696h2.68l9.28-24.46H384.7ZM368.2,628.91h.24l15.38,40.38h-31Z"/></g><line id="Baseline-S" class="cls-11" x1="263" y1="696" x2="3036" y2="696"/><line id="Capline-S" class="cls-11" x1="263" y1="625.54" x2="3036" y2="625.54"/><g id="H-reference-2" data-name="H-reference"><path class="cls-10" d="M393.93,1126h2.74l-27.1-70.46h-2.49L340,1126h2.68l9.28-24.46H384.7Zm-25.73-67.09h.24l15.38,40.38h-31Z"/></g><line id="Baseline-M" class="cls-11" x1="263" y1="1126" x2="3036" y2="1126"/><line id="Capline-M" class="cls-11" x1="263" y1="1055.54" x2="3036" y2="1055.54"/><g id="H-reference-3" data-name="H-reference"><path class="cls-10" d="M393.93,1556h2.74l-27.1-70.46h-2.49L340,1556h2.68l9.28-24.46H384.7Zm-25.73-67.09h.24l15.38,40.38h-31Z"/></g><line id="Baseline-L" class="cls-11" x1="263" y1="1556" x2="3036" y2="1556"/><line id="Capline-L" class="cls-11" x1="263" y1="1485.54" x2="3036" y2="1485.54"/><rect id="left-margin" class="cls-7" x="1384.05" y="1030.79" width="12.45" height="119.34"/><rect id="right-margin" class="cls-7" x="1503.19" y="1030.79" width="12.45" height="119.34"/></g><g id="Black-L"><path d="M2856.3,1512.35a10.89,10.89,0,1,0,21.78,0v-3.91c0-10.84,7.23-17.33,19-17.33h47.22v13.13c0,5,3.08,8.16,8,8.16a8.38,8.38,0,0,0,5.57-2.05l27.88-23.73a7.2,7.2,0,0,0,0-11.28l-27.88-23.73a8.38,8.38,0,0,0-5.57-2c-4.88,0-8,3.17-8,8.15v12.06H2898.1c-26,0-41.8,13.57-41.8,35.64Zm66.17,18.45c0-5-3.08-8.1-8-8.1a8.42,8.42,0,0,0-5.57,2l-27.83,23.73a7.25,7.25,0,0,0,0,11.33l27.83,23.68a8.46,8.46,0,0,0,5.57,2c4.93,0,8-3.12,8-8.1v-12h46.24c25.92,0,41.79-13.57,41.79-35.64v-6.93a10.89,10.89,0,1,0-21.77,0v3.9c0,10.84-7.23,17.38-19.1,17.38h-47.16Z"/></g><g id="Heavy-L"><path d="M2562,1513.37a9.82,9.82,0,1,0,19.63,0v-3.9c0-10.79,7.18-17.39,18.8-17.39h46.88v13.19c0,4.54,2.88,7.42,7.37,7.42a7.94,7.94,0,0,0,5.22-1.9l26.81-22.61a6.73,6.73,0,0,0,0-10.6l-26.81-22.65a7.9,7.9,0,0,0-5.22-1.91c-4.49,0-7.37,2.88-7.37,7.42v12.41h-45.85c-24.47,0-39.46,13-39.46,34.08Zm64.12,18c0-4.54-2.84-7.47-7.33-7.47a8.11,8.11,0,0,0-5.22,1.9l-26.86,22.66a6.76,6.76,0,0,0,0,10.6l26.86,22.65a7.85,7.85,0,0,0,5.22,1.91c4.49,0,7.33-2.88,7.33-7.43v-12.35H2672c24.42,0,39.46-13,39.46-34v-6.5a9.84,9.84,0,0,0-19.68,0v4c0,10.74-7.18,17.33-18.75,17.33h-46.92Z"/></g><g id="Bold-L"><path d="M2267.9,1514.5a8.65,8.65,0,1,0,17.29,0v-3.91c0-10.69,7.13-17.38,18.41-17.38h46.63v13.18c0,4.1,2.54,6.69,6.64,6.69a7.41,7.41,0,0,0,4.78-1.76l25.69-21.43a6.17,6.17,0,0,0,0-9.82l-25.69-21.48a7.41,7.41,0,0,0-4.78-1.76c-4.1,0-6.64,2.59-6.64,6.69v12.74h-45.46c-22.8,0-36.87,12.41-36.87,32.33Zm61.87,17.53c0-4.11-2.59-6.69-6.64-6.69a7.3,7.3,0,0,0-4.79,1.75l-25.73,21.44a6.19,6.19,0,0,0,0,9.81l25.73,21.49a7.31,7.31,0,0,0,4.79,1.76c4,0,6.64-2.59,6.64-6.69v-12.75h45.46c22.75,0,36.82-12.35,36.82-32.32v-5.91a8.65,8.65,0,0,0-17.29,0v3.91c0,10.69-7.13,17.43-18.41,17.43h-46.58Z"/></g><g id="Semibold-L"><path d="M1973,1515.28a7.82,7.82,0,1,0,15.63,0v-3.91c0-10.64,7.13-17.43,18.21-17.43h46.39v13.23a5.74,5.74,0,0,0,6.15,6.15,6.94,6.94,0,0,0,4.49-1.66l25-20.6a5.84,5.84,0,0,0,0-9.28l-25-20.6a6.68,6.68,0,0,0-4.49-1.66c-3.76,0-6.15,2.39-6.15,6.1v13h-45.17c-21.63,0-35.06,12-35.06,31.1Zm60.31,17.18a5.75,5.75,0,0,0-6.16-6.15,7.25,7.25,0,0,0-4.54,1.66l-24.9,20.61a5.78,5.78,0,0,0,0,9.23l24.9,20.7a7.15,7.15,0,0,0,4.54,1.61c3.76,0,6.16-2.34,6.16-6.1v-13h45.16c21.63,0,35.06-12,35.06-31.1v-5.57a7.84,7.84,0,1,0-15.67,0v3.91c0,10.64-7.08,17.43-18.17,17.43h-46.38Z"/></g><g id="Medium-L"><path d="M1677.68,1515.91a7.21,7.21,0,0,0,14.41,0v-4c0-10.6,7.08-17.43,18-17.43h46.24v13.28a5.37,5.37,0,0,0,5.76,5.71,6.84,6.84,0,0,0,4.29-1.56l24.32-20a5.57,5.57,0,0,0,0-8.89l-24.32-20a6.79,6.79,0,0,0-4.29-1.56,5.36,5.36,0,0,0-5.76,5.71v13.18h-45c-20.76,0-33.7,11.63-33.7,30.18Zm59.09,16.9A5.39,5.39,0,0,0,1731,1527a6.57,6.57,0,0,0-4.29,1.62l-24.32,19.92a5.52,5.52,0,0,0,0,8.84l24.32,20.06a6.8,6.8,0,0,0,4.29,1.57c3.52,0,5.77-2.2,5.77-5.72v-13.28h45c20.75,0,33.69-11.62,33.69-30.17v-5.28a7.21,7.21,0,1,0-14.41,0v3.91c0,10.64-7.08,17.43-18,17.43h-46.24Z"/></g><g id="Regular-L"><path d="M1382.77,1516.69a6.4,6.4,0,1,0,12.8,0v-4c0-10.55,7-17.43,17.77-17.43h46.05v13.23a4.91,4.91,0,0,0,5.27,5.22,6.37,6.37,0,0,0,4-1.46l23.59-19.14a5.22,5.22,0,0,0,0-8.35l-23.59-19.19a6.11,6.11,0,0,0-4-1.47,4.88,4.88,0,0,0-5.27,5.18v13.43h-44.68c-19.63,0-31.94,11.23-31.94,29Zm57.57,16.51c0-3.13-2-5.18-5.32-5.18a6.49,6.49,0,0,0-4,1.47l-23.59,19.14a5.17,5.17,0,0,0,0,8.3l23.59,19.24a6.54,6.54,0,0,0,4,1.46c3.27,0,5.32-2,5.32-5.17v-13.58H1485c19.63,0,31.93-11.18,31.93-29V1525a6.4,6.4,0,0,0-12.79,0v3.91c0,10.6-7,17.43-17.77,17.43h-46Z"/></g><g id="Light-L"><path d="M1088.48,1517.23a5.67,5.67,0,0,0,11.33,0v-3.61c0-11.33,7.18-18.51,18.51-18.51h43.94v13.33c0,2.88,1.91,4.69,4.84,4.69a5.57,5.57,0,0,0,3.61-1.32L1194,1493.4a5,5,0,0,0,0-8.15l-23.24-18.46a5.57,5.57,0,0,0-3.61-1.32c-2.93,0-4.84,1.81-4.84,4.69v13.92h-42.57c-19.34,0-31.21,10.88-31.21,28.51Zm55.52,16.11c0-2.88-1.9-4.68-4.83-4.68a5.85,5.85,0,0,0-3.66,1.31l-23.2,18.36a5,5,0,0,0,0,8.16l23.2,18.5a5.8,5.8,0,0,0,3.66,1.32c2.93,0,4.83-1.8,4.83-4.69v-14.06h42.58c19.29,0,31.2-10.89,31.2-28.51v-4.59a5.67,5.67,0,1,0-11.33,0v3.61c0,11.33-7.17,18.51-18.5,18.51h-44Z"/></g><g id="Thin-L"><path d="M795,1518a4.69,4.69,0,0,0,9.38,0v-3.17c0-12.35,7.42-20,19.43-20H865v13.47a3.89,3.89,0,0,0,4.2,4.06,4.82,4.82,0,0,0,3.17-1.17l22.81-17.48a4.92,4.92,0,0,0,0-7.91l-22.81-17.44a4.82,4.82,0,0,0-3.17-1.17,3.88,3.88,0,0,0-4.2,4v14.6H825.25c-19,0-30.28,10.5-30.28,27.93Zm52.83,15.53a3.88,3.88,0,0,0-4.19-4,4.85,4.85,0,0,0-3.18,1.17L817.63,1548a5,5,0,0,0,0,8l22.8,17.48a4.85,4.85,0,0,0,3.18,1.17,3.88,3.88,0,0,0,4.19-4v-14.7h39.8c18.95,0,30.27-10.49,30.27-27.93v-4.2a4.69,4.69,0,0,0-9.37,0v3.18c0,12.35-7.42,20-19.44,20H847.8Z"/></g><g id="Ultralight-L"><path d="M499.9,1518.35a4.18,4.18,0,0,0,8.35,0v-3c0-12.85,7.56-20.71,20-20.71h39.84v13.58a3.57,3.57,0,0,0,3.86,3.66,4.43,4.43,0,0,0,2.93-1.08l22.61-16.94a4.93,4.93,0,0,0,0-7.86l-22.61-16.85a4.54,4.54,0,0,0-2.93-1.12,3.6,3.6,0,0,0-3.86,3.71v15H529.68c-18.75,0-29.78,10.26-29.78,27.59Zm51.46,15.19a3.56,3.56,0,0,0-3.86-3.66,4.46,4.46,0,0,0-3,1.07L522,1547.85a4.84,4.84,0,0,0,0,7.81l22.56,16.94a4.48,4.48,0,0,0,3,1.08,3.57,3.57,0,0,0,3.86-3.67v-15h38.38c18.75,0,29.78-10.3,29.78-27.58v-4a4.2,4.2,0,1,0-8.39,0v2.93c0,12.89-7.52,20.71-19.92,20.71H551.36Z"/></g><g id="Black-M"><path d="M2871.75,1083.18a9.48,9.48,0,0,0,18.95,0v-2.88c0-8.89,5.71-14,15.57-14h35.84v10.21c0,4.25,2.64,7,6.79,7a6.81,6.81,0,0,0,4.64-1.71l22.75-19.48a6.14,6.14,0,0,0,0-9.57l-22.75-19.44a7.08,7.08,0,0,0-4.64-1.66c-4.15,0-6.79,2.69-6.79,6.94v9.23h-35.25c-21.93,0-35.11,11.08-35.11,29.49Zm52.93,14.65c0-4.25-2.64-6.94-6.79-6.94a7,7,0,0,0-4.63,1.66L2890.45,1112a6.22,6.22,0,0,0,0,9.61l22.81,19.39a6.73,6.73,0,0,0,4.63,1.71c4.15,0,6.79-2.69,6.79-7v-9h35.21c22,0,35.15-11.08,35.15-29.49v-5.81a9.47,9.47,0,1,0-18.94,0v2.83c0,8.89-5.76,14-15.58,14h-35.84Z"/></g><g id="Heavy-M"><path d="M2577,1084.15a8.5,8.5,0,1,0,17,0v-3c0-8.6,5.67-13.72,15.09-13.72h36v10.2c0,3.91,2.44,6.35,6.25,6.35a6.52,6.52,0,0,0,4.29-1.56l21.78-18.46a5.68,5.68,0,0,0,0-8.89l-21.78-18.46a6.52,6.52,0,0,0-4.29-1.56c-3.81,0-6.25,2.44-6.25,6.35v9.42h-35.36c-20.41,0-32.76,10.55-32.76,27.88Zm51.22,14.31c0-3.91-2.39-6.35-6.2-6.35a6.59,6.59,0,0,0-4.34,1.57L2596,1112.13a5.68,5.68,0,0,0,0,8.89l21.73,18.46A6.64,6.64,0,0,0,2622,1141c3.81,0,6.2-2.44,6.2-6.35v-9.28h35.35c20.41,0,32.82-10.54,32.82-27.93v-5.37a8.52,8.52,0,1,0-17,0V1095c0,8.65-5.62,13.72-15,13.72h-36.09Z"/></g><g id="Bold-M"><path d="M2282.48,1085.23a7.42,7.42,0,0,0,14.84,0v-3c0-8.35,5.57-13.48,14.46-13.48h36.38V1079a5.21,5.21,0,0,0,5.56,5.61,6.07,6.07,0,0,0,4-1.46l20.6-17.34a5.1,5.1,0,0,0,0-8.1l-20.6-17.33a6.07,6.07,0,0,0-4-1.47c-3.42,0-5.56,2.2-5.56,5.66v9.62h-35.55c-18.65,0-30.13,10-30.13,26.13Zm49.32,13.87c0-3.47-2.15-5.62-5.57-5.62a6,6,0,0,0-3.95,1.42l-20.61,17.38a5.09,5.09,0,0,0,0,8.06l20.61,17.38a6,6,0,0,0,3.95,1.46c3.42,0,5.57-2.19,5.57-5.66v-9.62h35.54c18.66,0,30.13-10,30.13-26.12v-4.89a7.42,7.42,0,1,0-14.84,0v3c0,8.3-5.57,13.43-14.46,13.43H2331.8Z"/></g><g id="Semibold-M"><path d="M1987.28,1086a6.69,6.69,0,0,0,13.38,0v-3.12c0-8.11,5.47-13.24,14.06-13.24h36.53v10.26a4.76,4.76,0,0,0,5.12,5.12,5.74,5.74,0,0,0,3.71-1.36l19.83-16.6a4.75,4.75,0,0,0,0-7.52l-19.83-16.61a5.74,5.74,0,0,0-3.71-1.36,4.78,4.78,0,0,0-5.12,5.17v9.82H2015.6c-17.48,0-28.32,9.57-28.32,24.85Zm48,13.58a4.81,4.81,0,0,0-5.18-5.13,5.9,5.9,0,0,0-3.71,1.37l-19.82,16.55a4.72,4.72,0,0,0,0,7.52l19.82,16.65a5.9,5.9,0,0,0,3.71,1.37,4.83,4.83,0,0,0,5.18-5.18v-9.81h35.59c17.48,0,28.32-9.58,28.32-24.91v-4.59a6.67,6.67,0,1,0-13.33,0v3.13c0,8.1-5.51,13.28-14.06,13.28h-36.52Z"/></g><g id="Medium-M"><path d="M1691.72,1086.55a6.11,6.11,0,0,0,12.21,0v-3.18c0-8,5.47-13.08,13.77-13.08h36.67v10.2a4.47,4.47,0,0,0,4.83,4.79,5.66,5.66,0,0,0,3.52-1.27l19.24-16a4.42,4.42,0,0,0,0-7.08l-19.24-16.06a5.42,5.42,0,0,0-3.52-1.32,4.47,4.47,0,0,0-4.83,4.78v10h-35.7c-16.55,0-27,9.22-27,23.92Zm47,13.38a4.5,4.5,0,0,0-4.78-4.84,5.84,5.84,0,0,0-3.57,1.32l-19.19,16a4.39,4.39,0,0,0,0,7.08l19.19,16.06a5.56,5.56,0,0,0,3.57,1.32,4.46,4.46,0,0,0,4.78-4.79v-10h35.74c16.56,0,26.91-9.27,26.91-23.92v-4.35a6.11,6.11,0,1,0-12.21,0V1097c0,7.91-5.42,13.08-13.77,13.08h-36.67Z"/></g><g id="Thin-M"><path d="M808.11,1088.45a3.86,3.86,0,0,0,3.85,3.81,3.82,3.82,0,0,0,3.81-3.81v-2.59c0-9.32,5.72-15.13,14.9-15.13h32.56v10.4a3.1,3.1,0,0,0,3.37,3.27,4,4,0,0,0,2.54-.93l17.78-13.72a3.84,3.84,0,0,0,0-6.2l-17.78-13.72a3.76,3.76,0,0,0-2.54-1,3.13,3.13,0,0,0-3.37,3.27v11.18H831.74c-14.75,0-23.63,8.26-23.63,21.78Zm41.5,12.16a3.1,3.1,0,0,0-3.37-3.27,4,4,0,0,0-2.54.93l-17.77,13.67a3.84,3.84,0,0,0,0,6.2l17.77,13.77a4,4,0,0,0,2.54.93,3.11,3.11,0,0,0,3.37-3.28v-11.23h31.5c14.74,0,23.63-8.2,23.63-21.77v-3.32a3.9,3.9,0,0,0-3.86-3.86,3.86,3.86,0,0,0-3.81,3.86v2.54c0,9.32-5.71,15.13-14.89,15.13H849.61Z"/></g><g id="Ultralight-M"><path d="M512.86,1088.79a3.4,3.4,0,0,0,6.79,0v-2.39c0-9.81,5.81-15.82,15.28-15.82h31.35v10.5a2.85,2.85,0,0,0,3.07,3,3.47,3.47,0,0,0,2.35-.88l17.58-13.28a3.83,3.83,0,0,0,0-6.11l-17.58-13.23a3.47,3.47,0,0,0-2.35-.88,2.84,2.84,0,0,0-3.07,3v11.47H536.05c-14.55,0-23.19,8-23.19,21.49Zm40.28,11.87a2.84,2.84,0,0,0-3.07-3,3.42,3.42,0,0,0-2.35.88l-17.57,13.23a3.79,3.79,0,0,0,0,6.1l17.57,13.29a3.46,3.46,0,0,0,2.35.87,2.84,2.84,0,0,0,3.07-3v-11.53h30.18c14.6,0,23.24-8,23.24-21.48v-3.18a3.41,3.41,0,0,0-3.42-3.36,3.38,3.38,0,0,0-3.37,3.36v2.35c0,9.81-5.81,15.82-15.33,15.82h-31.3Z"/></g><g id="Black-S"><path d="M2885.24,654.89a7.35,7.35,0,1,0,14.69,0v-2.25c0-6.93,4.5-10.94,12.16-10.94h28.13v8c0,3.32,2.05,5.42,5.27,5.42a5.33,5.33,0,0,0,3.61-1.32l17.78-15.18a4.82,4.82,0,0,0,0-7.47L2949.1,616a5.33,5.33,0,0,0-3.61-1.32c-3.22,0-5.27,2.1-5.27,5.42v7.23h-27.64c-17.09,0-27.34,8.64-27.34,23Zm41.35,11.47c0-3.32-2.05-5.42-5.27-5.42a5.33,5.33,0,0,0-3.61,1.32l-17.78,15.19a4.82,4.82,0,0,0,0,7.47l17.78,15.13a5.33,5.33,0,0,0,3.61,1.32c3.22,0,5.27-2.1,5.27-5.42v-7.08h27.64c17.09,0,27.34-8.64,27.34-23v-4.54a7.35,7.35,0,1,0-14.69,0v2.25c0,6.93-4.5,10.94-12.16,10.94h-28.13Z"/></g><g id="Heavy-S"><path d="M2589.77,655.57a6.69,6.69,0,1,0,13.37,0v-2.34c0-6.64,4.4-10.65,11.67-10.65h28.52v8c0,3.08,1.9,5,4.88,5a5.21,5.21,0,0,0,3.42-1.22l17-14.5a4.47,4.47,0,0,0,0-6.94l-17-14.5a5.21,5.21,0,0,0-3.42-1.22,4.59,4.59,0,0,0-4.88,5v7.33H2615.4c-16,0-25.63,8.3-25.63,21.82Zm40.28,11.23a4.59,4.59,0,0,0-4.88-5,5.11,5.11,0,0,0-3.42,1.22l-17,14.5a4.44,4.44,0,0,0,0,6.94l17,14.5a5.11,5.11,0,0,0,3.42,1.22,4.6,4.6,0,0,0,4.88-5V688H2658c15.92,0,25.63-8.3,25.63-21.82v-4.25a6.69,6.69,0,1,0-13.38,0v2.34c0,6.64-4.39,10.65-11.71,10.65h-28.47Z"/></g><g id="Bold-S"><path d="M2294.47,656.35a5.93,5.93,0,1,0,11.86,0v-2.49c0-6.3,4.35-10.25,11.18-10.25h29v8a4.18,4.18,0,0,0,4.44,4.54,5,5,0,0,0,3.17-1.17l16.17-13.73a4,4,0,0,0,0-6.34l-16.17-13.72a4.66,4.66,0,0,0-3.17-1.18,4.17,4.17,0,0,0-4.44,4.5v7.47h-28.32c-14.65,0-23.68,7.86-23.68,20.51Zm39.06,10.94a4.2,4.2,0,0,0-4.49-4.49,4.72,4.72,0,0,0-3.18,1.17l-16.16,13.72a4,4,0,0,0,0,6.3l16.16,13.77a5,5,0,0,0,3.18,1.17,4.22,4.22,0,0,0,4.49-4.54V687h28.27c14.65,0,23.68-7.86,23.68-20.51v-3.91a5.93,5.93,0,1,0-11.86,0V665c0,6.3-4.35,10.26-11.19,10.26h-28.9Z"/></g><g id="Semibold-S"><path d="M1998.74,656.89a5.42,5.42,0,1,0,10.84,0V654.3c0-6.1,4.24-10,10.84-10h29.19v8a3.89,3.89,0,0,0,4.15,4.2,4.62,4.62,0,0,0,3-1.12l15.63-13.19a3.75,3.75,0,0,0,0-5.91L2056.79,623a4.62,4.62,0,0,0-3-1.12,3.89,3.89,0,0,0-4.15,4.2v7.52H2021.1c-13.77,0-22.36,7.57-22.36,19.58Zm38.18,10.74a3.85,3.85,0,0,0-4.15-4.15,4.8,4.8,0,0,0-3,1.07l-15.57,13.19a3.76,3.76,0,0,0,0,6l15.57,13.23a5.11,5.11,0,0,0,3,1.07,3.85,3.85,0,0,0,4.15-4.15v-7.57h28.56c13.72,0,22.32-7.57,22.32-19.58V663a5.42,5.42,0,0,0-10.84,0v2.59c0,6.1-4.25,10-10.79,10h-29.25Z"/></g><g id="Medium-S"><path d="M1702.76,657.28a5.05,5.05,0,0,0,10.1,0v-2.64c0-5.91,4.15-9.86,10.5-9.86h29.44v8a3.66,3.66,0,0,0,4,3.9,4.4,4.4,0,0,0,2.88-1.07l15.19-12.74a3.54,3.54,0,0,0,0-5.62l-15.19-12.84a4.36,4.36,0,0,0-2.88-1.08,3.66,3.66,0,0,0-4,3.91v7.62h-28.71c-13,0-21.33,7.37-21.33,18.89Zm37.54,10.6a3.64,3.64,0,0,0-3.9-3.91,4.51,4.51,0,0,0-2.93,1.07l-15.14,12.8a3.45,3.45,0,0,0,0,5.56l15.14,12.89a4.7,4.7,0,0,0,2.93,1,3.64,3.64,0,0,0,3.9-3.91v-7.66H1769c13.08,0,21.33-7.38,21.33-18.9v-3.52a5,5,0,0,0-10.06,0V666c0,5.91-4.19,9.86-10.54,9.86H1740.3Z"/></g><g id="Regular-S"><path d="M1407,657.82a4.54,4.54,0,0,0,9.08,0v-2.69c0-5.76,4.1-9.67,10.15-9.67H1456v8a3.36,3.36,0,0,0,3.66,3.57,4.74,4.74,0,0,0,2.74-1L1477,643.8a3.27,3.27,0,0,0,0-5.22l-14.6-12.36a4.73,4.73,0,0,0-2.74-1,3.36,3.36,0,0,0-3.66,3.56v7.72h-29c-12.16,0-20,7.08-20,18Zm36.71,10.4a3.32,3.32,0,0,0-3.61-3.57,4.39,4.39,0,0,0-2.73,1l-14.6,12.25a3.25,3.25,0,0,0,0,5.23l14.6,12.35a4.39,4.39,0,0,0,2.73,1,3.32,3.32,0,0,0,3.61-3.56v-7.82h29c12.16,0,20-7.08,20-18v-3.32a4.54,4.54,0,0,0-9.08,0v2.74c0,5.71-4.1,9.62-10.16,9.62h-29.74Z"/></g><g id="Light-S"><path d="M1112.2,658.26a4,4,0,0,0,7.91,0v-2.45c0-6.34,4.24-10.49,10.74-10.49h28.07v8a3,3,0,0,0,3.28,3.18,3.81,3.81,0,0,0,2.44-.88L1179,644a3.16,3.16,0,0,0,0-5.08l-14.35-11.72a3.86,3.86,0,0,0-2.44-.93,3,3,0,0,0-3.28,3.23v8h-27.29c-11.91,0-19.43,6.84-19.43,17.68Zm35.1,10a3,3,0,0,0-3.27-3.17,3.72,3.72,0,0,0-2.44.88l-14.36,11.67a3.19,3.19,0,0,0,0,5.08l14.36,11.72a3.81,3.81,0,0,0,2.44.92,3,3,0,0,0,3.27-3.22V684h27.3c12,0,19.48-6.84,19.48-17.63v-3a4,4,0,0,0-7.91,0v2.4c0,6.34-4.25,10.49-10.74,10.49H1147.3Z"/></g><g id="Thin-S"><path d="M818,658.79a3.18,3.18,0,1,0,6.35,0v-2c0-7.18,4.44-11.62,11.47-11.62h26v8.16a2.52,2.52,0,0,0,2.78,2.63,3.28,3.28,0,0,0,2-.73l14-10.94a3.09,3.09,0,0,0,0-4.93l-14-10.89a3.07,3.07,0,0,0-2-.78,2.56,2.56,0,0,0-2.78,2.69V639h-25.1c-11.62,0-18.7,6.49-18.7,17.14Zm33,9.62a2.55,2.55,0,0,0-2.79-2.63,3.55,3.55,0,0,0-2.1.73l-14,10.94a3,3,0,0,0,0,4.88l14,10.94a3.36,3.36,0,0,0,2.1.78,2.6,2.6,0,0,0,2.79-2.69v-8.69h25.09c11.63,0,18.71-6.49,18.71-17.14V662.8a3.24,3.24,0,0,0-3.18-3.18,3.2,3.2,0,0,0-3.17,3.18v2.1c0,7.13-4.45,11.62-11.53,11.62H851Z"/></g><g id="Ultralight-S"><path d="M522.63,659.13a2.78,2.78,0,0,0,5.56,0v-1.9c0-7.57,4.5-12.21,11.87-12.21h24.85v8.16a2.35,2.35,0,0,0,2.49,2.44,2.93,2.93,0,0,0,1.91-.73l13.81-10.55a3,3,0,0,0,0-4.79l-13.81-10.49a2.89,2.89,0,0,0-1.91-.69,2.31,2.31,0,0,0-2.49,2.4v8.93h-24c-11.48,0-18.31,6.3-18.31,16.9Zm31.88,9.38a2.32,2.32,0,0,0-2.49-2.44,3,3,0,0,0-1.9.73L536.3,677.3a3,3,0,0,0,0,4.78l13.82,10.55a2.92,2.92,0,0,0,1.9.68,2.28,2.28,0,0,0,2.49-2.39v-9h24c11.47,0,18.31-6.3,18.31-16.9V662.5a2.82,2.82,0,0,0-2.79-2.78,2.77,2.77,0,0,0-2.73,2.78v1.91c0,7.57-4.54,12.21-11.92,12.21H554.51Z"/></g><g id="Light-M"><path id="Light-M-2" data-name="Light-M" d="M1164.71,1088.36v-10.31a3.64,3.64,0,0,0-4-3.85,4.85,4.85,0,0,0-3,1.07l-18.17,14.6a4,4,0,0,0,0,6.4l18.17,14.64a4.52,4.52,0,0,0,3,1.08,3.62,3.62,0,0,0,4-3.86v-10.55m-18.8-19.53a3.67,3.67,0,0,0-4-3.85,4.88,4.88,0,0,0-3,1.07l-18.16,14.6a4,4,0,0,0,0,6.4l18.16,14.64a4.55,4.55,0,0,0,3,1.08,3.68,3.68,0,0,0,4-3.86v-10.64h33.93c15.09,0,24.47-8.6,24.47-22.32v-3.71a4.72,4.72,0,1,0-9.43,0v2.93c0,8.45-5.52,13.87-14,13.87h-35Z"/></g><g id="Regular-M"><path d="M1450,1087.21V1077a4.05,4.05,0,0,0-4.39-4.3,5.23,5.23,0,0,0-3.32,1.22l-18.46,15.24a4.09,4.09,0,0,0,0,6.54l18.46,15.33a5.46,5.46,0,0,0,3.32,1.22,4.08,4.08,0,0,0,4.39-4.34V1097.8m-19.09-20.75a4,4,0,0,0-4.39-4.3,5.27,5.27,0,0,0-3.27,1.17l-18.46,15.24a4,4,0,0,0,0,6.54L1423.2,1111a5,5,0,0,0,3.27,1.22,4,4,0,0,0,4.39-4.29v-10.21h35.8c15.38,0,25.14-8.88,25.14-22.7v-4a5.37,5.37,0,1,0-10.74,0v3.23c0,7.71-5.37,12.89-13.38,12.89h-36.82Z"/></g></svg>